<svg width="281" height="240" viewBox="0 0 281 240" fill="none" xmlns="http://www.w3.org/2000/svg">
<g clip-path="url(#clip0_53_118)">
<path d="M93.6626 37.142C78.5601 38.107 63.4576 39.0721 48.3676 40.0371C49.5941 37.4265 52.9516 35.5212 55.2312 37.2781C56.6683 35.2119 58.217 32.9477 60.224 31.4383C63.7674 28.7658 68.723 27.1327 72.6257 29.236C75.2398 30.6465 76.7884 33.3808 78.2132 35.979C78.5229 34.3705 79.4026 32.6508 81.0503 32.7374C82.6981 32.824 84.16 34.2468 84.2963 35.88C85.4113 34.2097 87.0839 32.8116 89.0785 33.0591C91.0732 33.3065 92.9811 35.249 93.6626 37.142Z" fill="#E1ECF2"/>
<path d="M123.285 87.4729C128.625 85.4809 132.565 80.4701 133.816 74.9149C135.055 69.3597 133.754 63.3962 130.793 58.5338C130.099 65.0664 124.14 69.8298 121.687 75.917C120.894 77.8719 120.46 79.9752 120.386 82.0909C120.349 83.3034 120.448 84.5654 120.956 85.6665C121.464 86.7676 122.145 87.8935 123.285 87.4729Z" fill="#00B4D8"/>
<path d="M110.735 79.9257C112.172 77.909 113.151 75.5954 113.745 73.1827C115.455 66.3408 114.129 59.1029 112.048 52.36C109.967 45.617 107.105 39.1091 105.655 32.2053C100.526 38.7874 97.7261 47.411 97.9491 55.75C98.1721 64.089 101.319 72.3043 106.646 78.7132C107.538 79.7896 109.905 81.064 110.722 79.9133L110.735 79.9257Z" fill="#00B4D8"/>
<path d="M84.4573 60.8722C82.5865 51.0856 75.7105 42.4002 66.6168 38.3049C67.9796 47.1388 72.9477 55.1314 80.0591 60.5505C80.7529 61.0702 81.4839 61.5898 82.314 61.7878C83.1564 61.9981 83.875 61.5032 84.4573 60.8598V60.8722Z" fill="#00B4D8"/>
<path d="M100.972 89.0566C98.2713 83.6498 92.5227 80.5939 87.121 77.8719C83.8254 76.214 80.406 74.519 76.7264 74.3334C73.7778 74.1849 70.8787 75.0263 67.9796 75.6449C67.3849 75.781 66.4434 75.5707 66.6168 74.9768C68.5991 77.0801 70.3336 79.3442 72.3158 81.4352C73.6911 82.8951 75.0786 84.3674 76.6397 85.6418C79.6379 88.0915 83.2679 89.7618 87.0838 90.467C92.0023 91.3579 97.2677 90.6774 101.839 92.6941C101.592 91.6919 101.431 89.9845 100.972 89.0566Z" fill="#00B4D8"/>
<path d="M96.0413 100.773C89.7847 99.7958 83.4414 102.703 77.1477 101.998C76.9743 102.246 76.9123 102.679 77.1477 102.864C79.9972 105.079 83.2556 106.947 86.8361 107.405C90.4166 107.875 94.3564 106.712 96.5245 103.829C96.8714 103.371 97.1687 102.839 97.1439 102.27C97.1192 101.701 96.5988 100.847 96.0289 100.761L96.0413 100.773Z" fill="#00B4D8"/>
<path d="M102.632 93.622C96.1156 90.3309 88.4095 91.7661 81.8556 88.6359C78.622 87.0894 75.9088 84.6396 73.431 82.0909C70.569 79.1463 67.831 76.0779 65.0434 73.059C64.6222 72.6013 63.9408 73.2817 64.362 73.7395C67.1496 76.7584 69.8752 79.8268 72.7495 82.7714C75.1778 85.2706 77.8291 87.6585 80.9512 89.2545C87.5794 92.6693 95.5209 91.098 102.149 94.4509C102.707 94.7355 103.19 93.8942 102.632 93.622Z" fill="#1A2844"/>
<path d="M64.9443 73.8138C72.7866 70.263 82.3139 71.0548 89.636 75.5089C96.289 79.5546 100.861 86.5327 102.05 94.2036C102.149 94.8222 103.078 94.55 102.979 93.9438C101.728 85.9017 96.8093 78.5648 89.7475 74.4448C82.1529 70.0031 72.4893 69.335 64.4487 72.9725C63.8788 73.2323 64.3744 74.0613 64.9319 73.8015L64.9443 73.8138Z" fill="#1A2844"/>
<path d="M108.48 80.7052C102.372 73.3436 98.1227 63.7674 98.358 54.0674C98.6058 44.4417 102.62 35.0758 109.236 28.0977C109.669 27.6523 108.976 26.9595 108.554 27.4172C103.239 33.0219 99.5598 40.099 98.0979 47.6956C96.6236 55.3418 97.6766 62.9632 100.786 70.0773C102.57 74.1602 104.949 77.9585 107.799 81.3857C108.195 81.8682 108.876 81.1754 108.48 80.7052Z" fill="#1A2844"/>
<path d="M108.269 81.5094C111.59 80.3835 114.749 78.6266 116.929 75.8304C119.358 72.7126 119.878 68.9638 119.618 65.1159C119.06 56.9378 115.294 49.4772 112.544 41.8929C110.908 37.377 109.607 32.7126 109.521 27.875C109.521 27.2564 108.542 27.2564 108.554 27.875C108.691 35.4716 111.726 42.4992 114.439 49.4648C115.852 53.0776 117.19 56.7398 117.995 60.5505C118.837 64.5221 119.358 69.1988 117.561 72.9848C115.703 76.8697 111.974 79.2452 108.009 80.5814C107.427 80.7794 107.675 81.7073 108.269 81.5094Z" fill="#1A2844"/>
<path d="M121.315 86.5202C120.621 83.7488 120.77 80.7423 121.489 77.9956C122.269 75.0386 124.09 72.7374 125.85 70.3C127.609 67.8626 129.244 65.3634 130.186 62.4806C131.214 59.338 131.512 56.0099 131.809 52.7312C131.871 52.1126 130.892 52.1126 130.843 52.7312C130.52 56.2573 130.186 59.8453 128.922 63.1859C127.708 66.3656 125.552 69.038 123.595 71.7847C120.473 76.1645 119.073 81.4599 120.398 86.78C120.547 87.3863 121.476 87.1265 121.328 86.5202H121.315Z" fill="#1A2844"/>
<path d="M130.892 52.9662C134.671 59.8948 138.598 68.2461 136.963 76.3377C136.22 80.0123 134.25 83.3405 131.103 85.4314C128.117 87.3986 124.363 88.0791 121.129 86.2975C120.584 86.0005 120.101 86.8295 120.646 87.1264C127.597 90.9619 135.352 84.9984 137.446 78.3296C140.209 69.5205 135.885 60.0927 131.722 52.4589C131.425 51.9146 130.595 52.3971 130.892 52.9415V52.9662Z" fill="#1A2844"/>
<path d="M84.9405 62.5549C73.0716 58.6081 68.3389 44.6644 65.0558 33.9004C64.87 33.3065 63.9408 33.5539 64.1266 34.1602C67.5213 45.3077 72.4522 59.4247 84.6927 63.4952C85.2874 63.6931 85.5352 62.7528 84.9529 62.5672L84.9405 62.5549Z" fill="#1A2844"/>
<path d="M64.4611 34.4942C70.4204 36.3872 75.8345 40.1361 79.5017 45.2211C83.1937 50.3309 84.2715 56.8512 84.3335 63.025C84.3335 63.6436 85.3122 63.6436 85.2998 63.025C85.2379 56.5419 84.0609 49.6752 80.0716 44.3674C76.2185 39.2576 70.8044 35.4964 64.7213 33.5539C64.1266 33.3684 63.8665 34.2963 64.4611 34.4819V34.4942Z" fill="#1A2844"/>
<path d="M98.2342 102.196C96.8962 101.008 95.4342 99.9072 93.7989 99.1649C92.0768 98.373 90.144 98.1998 88.2733 98.1008C83.9123 97.8658 79.5513 98.4473 75.2398 99.103C74.6203 99.202 74.8929 100.13 75.5 100.031C79.4521 99.4247 83.4539 98.905 87.4556 99.0288C89.314 99.0906 91.321 99.1649 93.0555 99.8948C94.7157 100.588 96.2148 101.689 97.5528 102.889C98.0112 103.297 98.705 102.617 98.2342 102.208V102.196Z" fill="#1A2844"/>
<path d="M74.9548 99.7959C76.8875 103.904 80.8397 106.997 85.3494 107.702C90.0325 108.444 94.8767 106.65 98.0235 103.136C98.4324 102.679 97.751 101.986 97.3421 102.456C94.3687 105.796 89.7227 107.541 85.2874 106.724C81.1246 105.957 77.5813 103.112 75.7973 99.3133C75.5371 98.7566 74.6946 99.2391 74.9672 99.7959H74.9548Z" fill="#1A2844"/>
<path d="M105.123 45.6913C104.454 66.0068 106.362 87.0646 116.149 105.264C116.446 105.809 117.276 105.326 116.979 104.782C107.278 86.7305 105.42 65.8459 106.089 45.6913C106.114 45.0726 105.147 45.0726 105.123 45.6913Z" fill="#1A2844"/>
<path d="M72.8363 45.3077C76.9371 53.8199 82.4007 61.4908 88.9422 68.2956C92.3493 71.8465 95.8802 75.2613 99.0395 79.0473C102.199 82.8209 105.036 86.8419 107.687 90.9866C110.648 95.6139 113.361 100.402 116 105.215C116.298 105.759 117.14 105.277 116.83 104.732C112.284 96.4305 107.489 88.2276 101.641 80.767C95.5581 72.9972 87.8892 66.6625 82.0167 58.7194C78.7955 54.3643 76.0079 49.6999 73.6539 44.8252C73.3814 44.2684 72.5513 44.7509 72.8239 45.3077H72.8363Z" fill="#1A2844"/>
<path d="M77.9158 78.5153C84.9529 80.4578 91.4697 84.0334 96.859 88.9576C102.769 94.3396 107.885 100.687 113.238 106.613C113.659 107.071 114.34 106.39 113.919 105.933C110.995 102.691 108.071 99.4618 105.147 96.2202C102.459 93.2508 99.7952 90.232 96.7722 87.5843C91.4077 82.8951 85.0396 79.4927 78.176 77.5874C77.5689 77.4265 77.3212 78.3545 77.9158 78.5153Z" fill="#1A2844"/>
<path d="M129.182 74.2097C127.225 79.1339 122.752 82.4002 120.2 86.9656C117.326 92.0878 118.391 97.841 119.221 103.347C119.321 103.965 120.25 103.693 120.151 103.087C119.705 100.142 119.16 97.1852 119.234 94.1911C119.308 91.197 120.225 88.4998 121.91 86.0253C124.586 82.0909 128.328 78.9607 130.112 74.4571C130.347 73.8756 129.405 73.6282 129.182 74.1973V74.2097Z" fill="#1A2844"/>
<path d="M85.9193 103.136C87.79 103.347 89.5865 102.889 91.4077 102.493C93.6006 102.011 95.5829 101.899 97.7014 102.741C99.6093 103.508 101.393 104.658 103.116 105.747C104.862 106.848 106.547 108.024 108.146 109.335C108.629 109.731 109.31 109.05 108.827 108.655C105.68 106.081 102.075 103.557 98.3209 101.961C96.4749 101.182 94.6413 100.947 92.6714 101.256C90.4042 101.615 88.236 102.419 85.9069 102.171C85.2874 102.097 85.2998 103.075 85.9069 103.136H85.9193Z" fill="#1A2844"/>
<path d="M133.37 90.3928L132.614 86.5945C132.292 84.9984 130.892 83.8478 129.257 83.8478H119.853C118.218 83.8478 116.818 84.9984 116.496 86.5945L115.74 90.3928C115.517 91.5187 114.749 92.4466 113.696 92.8796L111.503 93.7828C110.45 94.2159 109.236 94.1045 108.294 93.4735L105.073 91.3331C103.71 90.4299 101.901 90.6031 100.749 91.7661L94.0961 98.4101C92.9439 99.5607 92.7581 101.367 93.6625 102.728L95.8058 105.945C96.4377 106.898 96.5616 108.098 96.1155 109.149L95.2111 111.339C94.7775 112.391 93.8359 113.158 92.7209 113.381L88.9174 114.135C87.3192 114.457 86.167 115.855 86.167 117.488V126.879C86.167 128.512 87.3192 129.91 88.9174 130.232L92.7209 130.987C93.8483 131.209 94.7775 131.976 95.2111 133.028L96.1155 135.218C96.5492 136.27 96.4377 137.482 95.8058 138.422L93.6625 141.639C92.7581 143 92.9315 144.807 94.0961 145.957L100.749 152.601C101.901 153.752 103.71 153.937 105.073 153.034L108.294 150.894C109.248 150.263 110.45 150.139 111.503 150.585L113.696 151.488C114.749 151.921 115.517 152.861 115.74 153.975L116.496 157.773C116.818 159.369 118.218 160.52 119.853 160.52H129.257C130.892 160.52 132.292 159.369 132.614 157.773L133.37 153.975C133.593 152.849 134.361 151.921 135.414 151.488L137.607 150.585C138.66 150.152 139.874 150.263 140.816 150.894L144.037 153.034C145.4 153.937 147.209 153.764 148.361 152.601L155.014 145.957C156.166 144.807 156.352 143 155.448 141.639L153.304 138.422C152.672 137.47 152.548 136.27 152.994 135.218L153.899 133.028C154.333 131.976 155.274 131.209 156.389 130.987L160.193 130.232C161.791 129.91 162.943 128.512 162.943 126.879V117.488C162.943 115.855 161.791 114.457 160.193 114.135L156.389 113.381C155.262 113.158 154.333 112.391 153.899 111.339L152.994 109.149C152.561 108.098 152.672 106.885 153.304 105.945L155.448 102.728C156.352 101.367 156.179 99.5607 155.014 98.4101L148.361 91.7661C147.209 90.6155 145.4 90.4299 144.037 91.3331L140.816 93.4735C139.862 94.1045 138.66 94.2282 137.607 93.7828L135.414 92.8796C134.361 92.4466 133.593 91.5063 133.37 90.3928Z" fill="#007FFF"/>
<path d="M145.683 127.143C148.417 115.487 141.17 103.825 129.498 101.095C117.826 98.3656 106.148 105.602 103.415 117.258C100.682 128.915 107.928 140.577 119.6 143.306C131.272 146.036 142.95 138.799 145.683 127.143Z" fill="white"/>
<path d="M124.549 144.25C112.37 144.25 102.471 134.352 102.471 122.202C102.471 110.053 112.383 100.155 124.549 100.155C136.715 100.155 146.626 110.053 146.626 122.202C146.626 134.352 136.715 144.25 124.549 144.25ZM124.549 100.897C112.791 100.897 103.227 110.449 103.227 122.19C103.227 133.931 112.791 143.483 124.549 143.483C136.306 143.483 145.871 133.931 145.871 122.19C145.871 110.449 136.306 100.897 124.549 100.897Z" fill="#1A2844"/>
<path d="M123.421 130.232C122.852 130.232 122.269 130.046 121.786 129.663L113.683 123.192C113.138 122.759 113.052 121.967 113.485 121.41C113.919 120.866 114.712 120.78 115.269 121.213L123.372 127.683L135.03 116.14C135.526 115.645 136.331 115.645 136.814 116.14C137.31 116.635 137.31 117.439 136.814 117.921L125.267 129.453C124.759 129.96 124.09 130.22 123.421 130.22V130.232Z" fill="#1A2844"/>
<path d="M86.7369 127.535C86.2166 124.429 86.2413 121.237 86.8236 118.132C86.9104 117.649 86.1794 117.451 86.0927 117.934C85.4856 121.175 85.4608 124.479 86.0059 127.733C86.0803 128.215 86.8236 128.005 86.7369 127.535Z" fill="#1A2844"/>
<path d="M94.8394 98.373C96.6482 96.3811 98.7296 94.6489 101.022 93.2385C101.43 92.9786 101.059 92.3229 100.638 92.5827C98.296 94.0303 96.1527 95.7995 94.2943 97.841C93.9722 98.1998 94.5049 98.7442 94.827 98.373H94.8394Z" fill="#1A2844"/>
<path d="M121.91 84.1448C124.004 83.9839 126.097 83.8355 128.191 83.6746C128.674 83.6375 128.674 82.8828 128.191 82.9199C126.097 83.0807 124.004 83.2292 121.91 83.3901C121.427 83.4272 121.427 84.1819 121.91 84.1448Z" fill="#1A2844"/>
<path d="M151.148 95.3294C152.016 96.6533 153.44 97.3214 154.58 98.3607C156.092 99.7464 155.832 101.417 154.89 103.05C154.085 104.448 153.007 105.796 152.722 107.43C152.437 109.088 153.044 110.77 154.246 111.921C154.605 112.255 155.138 111.723 154.778 111.389C153.242 109.929 153.094 107.863 154.01 106.032C154.729 104.596 155.844 103.334 156.302 101.775C156.711 100.402 156.34 99.0535 155.336 98.039C154.233 96.9131 152.685 96.2945 151.805 94.9459C151.545 94.5376 150.876 94.9211 151.148 95.3294Z" fill="#1A2844"/>
<path d="M152.796 147.652C151.396 148.593 150.083 149.681 148.894 150.882C148.547 151.228 149.092 151.76 149.426 151.414C150.566 150.251 151.83 149.211 153.18 148.308C153.589 148.036 153.205 147.38 152.796 147.652Z" fill="#1A2844"/>
<path d="M124.103 159.567C122.331 159.579 120.188 159.938 118.466 159.542C116.248 159.023 116.483 156.189 116.161 154.47C115.715 152.032 113.857 149.917 111.354 149.508C110.227 149.323 109.062 149.471 108.022 149.954C106.77 150.548 106.039 151.661 104.974 152.502C102.979 154.086 101.133 152.366 99.7332 150.906C98.4076 149.533 97.0943 148.147 95.7811 146.762C95.4466 146.403 94.9014 146.947 95.2483 147.294C96.6235 148.741 97.9864 150.201 99.3863 151.636C100.34 152.614 101.468 153.715 102.88 153.913C103.933 154.061 104.85 153.628 105.631 152.948C107.13 151.649 108.146 150.201 110.363 150.189C112.321 150.176 114.068 151.364 114.922 153.096C115.728 154.717 115.381 156.598 116.062 158.243C116.545 159.394 117.4 160.186 118.664 160.334C120.423 160.557 122.331 160.334 124.103 160.334C124.586 160.334 124.586 159.567 124.103 159.579V159.567Z" fill="#1A2844"/>
<path d="M98.9651 125.407C99.1261 129.205 100.439 132.892 102.744 135.923C103.029 136.307 103.698 135.923 103.4 135.54C101.183 132.608 99.8943 129.069 99.7332 125.407C99.7084 124.924 98.9527 124.924 98.9775 125.407H98.9651Z" fill="#1A2844"/>
<path d="M105.085 139.375C105.457 139.623 105.829 139.858 106.2 140.105C106.361 140.217 106.622 140.142 106.721 139.969C106.82 139.784 106.758 139.573 106.584 139.449C106.213 139.202 105.841 138.967 105.469 138.719C105.308 138.608 105.048 138.682 104.949 138.856C104.85 139.041 104.912 139.251 105.085 139.375Z" fill="#1A2844"/>
<path d="M146.019 137.099C148.51 132.187 149.984 126.83 150.368 121.336C150.405 120.854 149.637 120.854 149.612 121.336C149.241 126.694 147.791 131.927 145.363 136.715C145.14 137.148 145.796 137.532 146.019 137.099Z" fill="#1A2844"/>
<path d="M148.571 114.952C148.448 114.581 148.336 114.21 148.212 113.839C148.187 113.74 148.125 113.665 148.039 113.616C147.952 113.566 147.841 113.554 147.741 113.579C147.556 113.641 147.407 113.839 147.481 114.049C147.605 114.42 147.717 114.791 147.841 115.162C147.865 115.261 147.927 115.336 148.014 115.385C148.101 115.435 148.212 115.447 148.311 115.422C148.497 115.36 148.646 115.162 148.571 114.952Z" fill="#1A2844"/>
<path d="M248.788 87.0771C253.992 89.3907 260.323 88.5989 265.117 85.5058C269.912 82.425 273.17 77.2534 274.483 71.7229C269.404 75.88 261.809 75.1129 255.776 77.7235C253.831 78.5648 252.047 79.7526 250.51 81.2125C249.631 82.0539 248.813 83.0189 248.404 84.1572C247.995 85.3078 247.673 86.5822 248.788 87.0771Z" fill="#00B4D8"/>
<path d="M245.133 72.8983C247.574 72.4776 249.903 71.5002 252.022 70.2135C258.043 66.5389 262.193 60.4516 265.439 54.1912C268.685 47.9308 271.237 41.2868 275.053 35.348C266.777 36.4368 258.712 40.6187 253.013 46.7183C247.314 52.8179 243.77 60.8723 243.064 69.1742C242.94 70.5723 243.733 73.1334 245.121 72.8859L245.133 72.8983Z" fill="#00B4D8"/>
<path d="M239.818 40.9156C245.369 32.6385 246.583 21.627 242.965 12.3353C237.724 19.5856 235.643 28.7535 236.894 37.5998C237.018 38.4535 237.179 39.3319 237.625 40.0743C238.071 40.8166 238.939 40.9651 239.806 40.9156H239.818Z" fill="#00B4D8"/>
<path d="M231.765 72.5642C233.636 66.8234 231.691 60.6125 229.758 54.8841C228.581 51.395 227.33 47.7947 224.84 45.0727C222.845 42.8952 220.194 41.46 217.691 39.8763C217.171 39.5546 216.65 38.7504 217.196 38.4535C217.134 41.3363 216.774 44.1695 216.712 47.0523C216.663 49.069 216.613 51.0857 216.836 53.0777C217.258 56.9255 218.658 60.662 220.888 63.8293C223.762 67.9122 227.987 71.1166 229.833 75.7563C230.353 74.8655 231.456 73.5416 231.778 72.5518L231.765 72.5642Z" fill="#00B4D8"/>
<path d="M220.02 77.4513C216.254 72.3662 209.688 69.9907 205.698 65.0789C205.389 65.1283 205.054 65.4005 205.091 65.7099C205.562 69.2855 206.566 72.8982 208.796 75.7315C211.013 78.5772 214.643 80.5073 218.212 79.9752C218.781 79.8886 219.364 79.7278 219.748 79.3071C220.132 78.8865 220.355 77.909 220.02 77.4513Z" fill="#00B4D8"/>
<path d="M229.746 76.9811C227.64 70.6712 222.064 66.5265 219.203 60.6372C217.418 56.9626 217.059 52.8178 217.059 48.7844C217.059 44.5159 217.295 40.2475 217.443 35.979C217.468 35.3604 216.502 35.3604 216.477 35.979C216.328 40.3217 216.08 44.6892 216.093 49.0319C216.105 52.756 216.452 56.5419 217.877 60.0186C220.516 66.3904 226.611 70.6341 228.817 77.2286C229.015 77.8101 229.944 77.5626 229.746 76.9688V76.9811Z" fill="#1A2844"/>
<path d="M216.812 36.4491C224.233 39.171 230.08 45.4933 232.608 52.9291C235.358 60.996 233.884 70.0773 228.916 76.9811C228.557 77.4884 229.387 77.9709 229.746 77.4636C234.937 70.2629 236.399 60.6495 233.388 52.2734C230.65 44.6644 224.679 38.3173 217.047 35.5212C216.465 35.3108 216.204 36.2388 216.787 36.4491H216.812Z" fill="#1A2844"/>
<path d="M242.99 71.8837C243.795 62.5672 247.351 52.991 254.041 46.2728C260.991 39.2947 270.692 35.2737 280.505 34.9396C281.124 34.9149 281.124 33.9498 280.505 33.9746C272.613 34.2468 264.869 36.8079 258.415 41.3609C252.084 45.8274 247.562 52.0383 244.848 59.2638C243.324 63.3219 242.395 67.5657 242.024 71.8837C241.974 72.5023 242.94 72.5023 242.99 71.8837Z" fill="#1A2844"/>
<path d="M242.259 72.292C246.038 74.1108 250.324 75.1253 254.45 73.9004C258.154 72.7993 260.917 69.966 263.184 66.9595C267.905 60.7114 270.296 53.1272 273.616 46.1244C275.524 42.1033 277.779 38.2308 280.864 34.9892C281.297 34.5438 280.616 33.8509 280.182 34.3087C275.227 39.5051 272.464 46.1739 269.676 52.6818C266.864 59.2639 263.705 66.9348 257.684 71.2651C253.174 74.5067 247.487 73.752 242.754 71.4754C242.197 71.2033 241.701 72.0446 242.271 72.3044L242.259 72.292Z" fill="#1A2844"/>
<path d="M248.032 85.0109C249.556 82.4498 251.885 80.3217 254.487 78.8618C257.225 77.3152 260.347 77.043 263.395 76.511C266.344 75.9914 269.205 75.249 271.832 73.7891C274.533 72.292 276.912 70.2753 279.253 68.2957C279.724 67.8998 279.043 67.207 278.572 67.6153C276.032 69.7557 273.467 71.9209 270.469 73.4179C267.384 74.9645 263.977 75.4346 260.607 76.0038C257.783 76.4863 255.255 77.1296 252.839 78.7504C250.584 80.2599 248.577 82.2023 247.19 84.5407C246.868 85.0727 247.71 85.5676 248.02 85.0232L248.032 85.0109Z" fill="#1A2844"/>
<path d="M278.448 67.8256C276.23 75.5212 273.108 84.3923 266.021 88.9453C262.912 90.9496 259.183 91.8404 255.54 91.0486C252.121 90.3186 249.085 88.1782 248.057 84.7263C247.884 84.1324 246.942 84.3799 247.128 84.9861C249.346 92.4714 258.885 93.7582 265.03 90.6279C273.356 86.3842 276.961 76.4863 279.389 68.073C279.563 67.4792 278.634 67.2194 278.46 67.8132L278.448 67.8256Z" fill="#1A2844"/>
<path d="M238.976 42.4497C233.314 31.3146 239.707 18.1008 244.947 8.10393C245.232 7.55954 244.402 7.06464 244.117 7.6214C238.691 17.9647 232.298 31.4507 238.146 42.9446C238.431 43.5014 239.261 43.0065 238.976 42.4621V42.4497Z" fill="#1A2844"/>
<path d="M244.117 8.10393C247.116 13.8076 248.379 20.5877 247.177 26.9718C246.062 32.923 242.358 38.0823 238.22 42.3508C237.786 42.7962 238.468 43.4766 238.901 43.0312C243.25 38.5401 247.14 33.0591 248.193 26.7739C249.284 20.2413 248.02 13.4488 244.96 7.6214C244.675 7.06464 243.832 7.55954 244.13 8.10393H244.117Z" fill="#1A2844"/>
<path d="M220.59 80C220.479 78.1688 220.194 76.313 219.512 74.6056C218.819 72.8363 217.542 71.364 216.266 69.9783C213.355 66.811 209.874 64.188 206.392 61.6764C205.884 61.3176 205.401 62.1466 205.909 62.5054C209.167 64.8561 212.401 67.2935 215.176 70.2134C216.452 71.5496 217.827 73.0095 218.534 74.7293C219.215 76.3872 219.512 78.2183 219.624 79.9876C219.661 80.6062 220.627 80.6062 220.59 79.9876V80Z" fill="#1A2844"/>
<path d="M205.686 61.961C204.125 66.3408 204.856 71.4259 207.705 75.1252C210.518 78.7875 215.164 80.8289 219.773 80.5196C220.392 80.4825 220.392 79.5051 219.773 79.5545C215.511 79.8391 211.212 78.0204 208.56 74.6551C205.822 71.1784 205.153 66.3532 206.628 62.2208C206.838 61.6393 205.897 61.3795 205.698 61.961H205.686Z" fill="#1A2844"/>
<path d="M265.216 44.5778C253.645 55.5521 242.891 67.8627 235.953 82.3384C234.045 86.3347 232.447 90.467 231.195 94.7231C231.022 95.317 231.951 95.5768 232.125 94.983C237.898 75.3232 251.254 59.1401 265.898 45.2583C266.356 44.8252 265.662 44.1447 265.216 44.5778Z" fill="#1A2844"/>
<path d="M242.482 21.6641C239.409 30.6465 237.91 39.9877 237.786 49.4773C237.725 54.3273 237.836 59.1773 237.427 64.0273C237.018 68.9639 236.213 73.8633 235.185 78.701C234.045 84.0582 232.62 89.3412 231.121 94.5995C230.948 95.1934 231.889 95.4532 232.05 94.8593C234.652 85.7161 237.018 76.4739 238.096 67.009C239.199 57.2596 238.208 47.4111 239.595 37.6864C240.363 32.3292 241.652 27.0585 243.411 21.9363C243.609 21.3425 242.68 21.095 242.482 21.6765V21.6641Z" fill="#1A2844"/>
<path d="M222.758 48.8957C226.463 55.317 228.581 62.5301 228.928 69.9288C229.3 77.7977 228.519 85.7903 228.172 93.6591C228.148 94.2777 229.114 94.2777 229.139 93.6591C229.325 89.4896 229.51 85.3201 229.684 81.1506C229.87 77.043 230.105 72.9106 229.833 68.8029C229.337 61.6269 227.181 54.6365 223.588 48.4008C223.279 47.8564 222.436 48.3513 222.758 48.8834V48.8957Z" fill="#1A2844"/>
<path d="M262.305 81.7569C257.027 84.0705 250.993 82.9199 245.641 84.9737C240.71 86.8667 237.7 91.4197 234.726 95.515C234.355 96.0223 235.197 96.5048 235.556 95.9975C238.778 91.5558 241.974 86.8296 247.586 85.3573C252.604 84.0334 257.944 84.7139 262.776 82.5858C263.345 82.3384 262.85 81.5094 262.292 81.7569H262.305Z" fill="#1A2844"/>
<path d="M211.15 72.0322C213.516 74.9768 217.642 75.8057 219.463 79.27C220.417 81.0888 220.888 83.1797 221.371 85.1593C221.928 87.4234 222.374 89.7123 222.622 92.0383C222.684 92.6446 223.65 92.657 223.588 92.0383C223.341 89.7494 222.919 87.4977 222.387 85.2706C221.891 83.1797 221.383 81.0269 220.441 79.0844C219.599 77.3647 218.311 76.115 216.725 75.0634C215.003 73.9251 213.144 72.9972 211.819 71.3517C211.435 70.8691 210.753 71.5496 211.137 72.0322H211.15Z" fill="#1A2844"/>
<path d="M235.866 28.073H136.182C131.105 28.073 126.99 32.1832 126.99 37.2533V230.028C126.99 235.098 131.105 239.208 136.182 239.208H235.866C240.943 239.208 245.059 235.098 245.059 230.028V37.2533C245.059 32.1832 240.943 28.073 235.866 28.073Z" fill="#1A2844"/>
<path d="M242.284 28.9639H146.242C140.645 28.9639 136.108 33.495 136.108 39.0845V228.222C136.108 233.811 140.645 238.342 146.242 238.342H242.284C247.881 238.342 252.418 233.811 252.418 228.222V39.0845C252.418 33.495 247.881 28.9639 242.284 28.9639Z" fill="white"/>
<path d="M244.105 239.221H144.409C139.342 239.221 135.216 235.101 135.216 230.04V37.2533C135.216 32.193 139.342 28.073 144.409 28.073H244.105C249.172 28.073 253.298 32.193 253.298 37.2533V230.04C253.298 235.101 249.172 239.221 244.105 239.221ZM144.409 29.8423C140.32 29.8423 136.988 33.1704 136.988 37.2533V230.04C136.988 234.123 140.32 237.451 144.409 237.451H244.105C248.193 237.451 251.526 234.123 251.526 230.04V37.2533C251.526 33.1704 248.193 29.8423 244.105 29.8423H144.409Z" fill="#1A2844"/>
<path d="M204.608 35.5212H186.036V38.1071H204.608V35.5212Z" fill="#1A2844"/>
<path d="M240.054 58.1503H148.448C145.437 58.1503 142.996 60.5876 142.996 63.5941V79.802C142.996 82.8085 145.437 85.2458 148.448 85.2458H240.054C243.064 85.2458 245.505 82.8085 245.505 79.802V63.5941C245.505 60.5876 243.064 58.1503 240.054 58.1503Z" fill="#007FFF"/>
<path d="M161.803 62.2208L161.568 61.0702C161.469 60.5876 161.048 60.2412 160.552 60.2412H157.702C157.207 60.2412 156.786 60.6 156.687 61.0825L156.464 62.2332C156.402 62.5672 156.166 62.8518 155.844 62.9879L155.175 63.2601C154.853 63.3962 154.494 63.3591 154.196 63.1735L153.218 62.5301C152.809 62.2579 152.264 62.3074 151.904 62.6662L149.897 64.6829C149.55 65.0293 149.501 65.5861 149.773 65.9944L150.43 66.9718C150.628 67.2564 150.665 67.6275 150.529 67.9369L150.257 68.605C150.12 68.9266 149.848 69.1617 149.501 69.2236L148.349 69.4587C147.865 69.5576 147.519 69.9783 147.519 70.4732V73.3188C147.519 73.8137 147.878 74.2344 148.361 74.3334L149.513 74.5561C149.848 74.6179 150.133 74.853 150.269 75.1747L150.542 75.8428C150.678 76.1645 150.641 76.5233 150.455 76.8202L149.811 77.7977C149.538 78.206 149.588 78.7503 149.947 79.1091L151.966 81.1135C152.313 81.4599 152.871 81.5094 153.28 81.2372L154.258 80.5814C154.543 80.3835 154.915 80.3464 155.225 80.4825L155.894 80.7547C156.216 80.8908 156.451 81.163 156.513 81.5094L156.749 82.66C156.848 83.1425 157.269 83.489 157.764 83.489H160.614C161.11 83.489 161.531 83.1302 161.63 82.6476L161.853 81.497C161.915 81.163 162.15 80.8784 162.472 80.7423L163.141 80.4701C163.463 80.334 163.823 80.3711 164.12 80.5567L165.099 81.2001C165.508 81.4723 166.053 81.4228 166.412 81.064L168.419 79.0473C168.766 78.7008 168.816 78.1441 168.543 77.7358L167.886 76.7584C167.688 76.4738 167.651 76.1026 167.787 75.7933L168.06 75.1252C168.196 74.8035 168.469 74.5685 168.816 74.5066L169.968 74.2715C170.451 74.1725 170.798 73.7519 170.798 73.257V70.4113C170.798 69.9164 170.439 69.4958 169.955 69.3968L168.803 69.1741C168.469 69.1122 168.184 68.8772 168.048 68.5555L167.775 67.8874C167.639 67.5657 167.676 67.2069 167.862 66.9099L168.506 65.9325C168.778 65.5242 168.729 64.9798 168.37 64.621L166.35 62.6167C166.003 62.2703 165.446 62.2208 165.037 62.493L164.058 63.1487C163.773 63.3467 163.402 63.3838 163.092 63.2477L162.423 62.9755C162.101 62.8394 161.865 62.5672 161.803 62.2208Z" fill="#00B4D8"/>
<path d="M165.731 71.8342C165.731 75.4593 162.807 78.4039 159.177 78.4163C155.547 78.4287 152.598 75.4964 152.586 71.8713C152.586 68.2462 155.51 65.3016 159.14 65.2892C162.77 65.2892 165.718 68.2091 165.731 71.8342Z" fill="white"/>
<path d="M159.152 78.5895C155.435 78.5895 152.412 75.583 152.412 71.8713C152.412 68.1596 155.423 65.1283 159.14 65.116H159.152C160.948 65.116 162.633 65.8088 163.909 67.0708C165.186 68.3452 165.892 70.0278 165.904 71.8342C165.904 73.6282 165.21 75.3232 163.947 76.5976C162.671 77.8719 160.986 78.5771 159.177 78.5895H159.152ZM159.152 65.4748H159.14C155.621 65.4748 152.759 68.3575 152.772 71.8713C152.772 73.5787 153.441 75.1747 154.655 76.3749C155.856 77.575 157.455 78.2307 159.164 78.2307H159.177C160.886 78.2307 162.485 77.5626 163.686 76.3501C164.888 75.1376 165.545 73.5416 165.545 71.8342C165.545 70.1268 164.876 68.5307 163.662 67.3306C162.46 66.1305 160.862 65.4748 159.152 65.4748Z" fill="#1A2844"/>
<path d="M147.779 73.4797C147.618 72.5518 147.63 71.5991 147.791 70.6712C147.828 70.4485 147.494 70.3495 147.444 70.5722C147.258 71.562 147.258 72.5765 147.432 73.5787C147.469 73.8014 147.816 73.7024 147.779 73.4797Z" fill="#1A2844"/>
<path d="M150.195 64.7076C150.74 64.1014 151.359 63.5818 152.053 63.1611C152.251 63.0374 152.065 62.7281 151.867 62.8518C151.149 63.2972 150.504 63.8292 149.947 64.4602C149.798 64.6334 150.046 64.8809 150.195 64.7076Z" fill="#1A2844"/>
<path d="M158.322 60.4021C158.954 60.3526 159.586 60.3031 160.217 60.2536C160.317 60.2536 160.391 60.1794 160.391 60.0804C160.391 59.9938 160.304 59.8948 160.217 59.9072C159.586 59.9567 158.954 60.0062 158.322 60.0557C158.223 60.0557 158.148 60.1299 158.148 60.2289C158.148 60.3155 158.235 60.4145 158.322 60.4021Z" fill="#1A2844"/>
<path d="M167.131 63.7302C167.403 64.1385 167.837 64.3365 168.184 64.6582C168.617 65.0541 168.543 65.5242 168.27 66.0068C168.023 66.4398 167.701 66.8481 167.614 67.343C167.527 67.8626 167.713 68.3946 168.097 68.7658C168.258 68.9267 168.518 68.6668 168.345 68.5184C167.899 68.0977 167.849 67.5038 168.122 66.9718C168.345 66.5264 168.679 66.1429 168.816 65.6727C168.939 65.2397 168.816 64.8066 168.506 64.485C168.171 64.1509 167.701 63.9653 167.44 63.5694C167.316 63.3838 167.007 63.557 167.131 63.755V63.7302Z" fill="#1A2844"/>
<path d="M167.701 79.468C167.267 79.7526 166.87 80.0866 166.511 80.4578C166.449 80.532 166.437 80.6434 166.511 80.7053C166.573 80.7671 166.697 80.7795 166.759 80.7053C167.106 80.3588 167.478 80.0495 167.874 79.7649C167.948 79.7155 167.986 79.6041 167.936 79.5175C167.886 79.4433 167.775 79.3938 167.688 79.4556L167.701 79.468Z" fill="#1A2844"/>
<path d="M159.053 83.0931C158.52 83.0931 157.876 83.2044 157.368 83.0931C156.736 82.9446 156.798 82.0909 156.711 81.6084C156.563 80.8536 155.98 80.1979 155.212 80.0618C154.853 80 154.481 80.0618 154.159 80.2103C153.775 80.3959 153.552 80.7299 153.23 80.9897C152.66 81.4475 152.127 80.9279 151.731 80.5196C151.334 80.0989 150.926 79.6906 150.529 79.27C150.368 79.1091 150.12 79.3566 150.281 79.5174C150.703 79.9505 151.111 80.3959 151.533 80.8289C151.83 81.1382 152.177 81.4599 152.623 81.5341C152.97 81.5836 153.267 81.4475 153.515 81.2248C153.948 80.8413 154.246 80.4082 154.902 80.4082C155.472 80.4082 155.98 80.7423 156.228 81.2496C156.476 81.7321 156.364 82.3136 156.575 82.8085C156.984 83.7735 158.223 83.4766 159.065 83.4642C159.301 83.4642 159.301 83.1054 159.065 83.1054L159.053 83.0931Z" fill="#1A2844"/>
<path d="M151.347 72.8364C151.396 73.9994 151.805 75.1253 152.511 76.0532C152.648 76.2388 152.957 76.0532 152.821 75.8676C152.152 74.9892 151.756 73.9375 151.706 72.8364C151.706 72.6137 151.334 72.6013 151.347 72.8364Z" fill="#1A2844"/>
<path d="M153.255 77.1172C153.366 77.1914 153.478 77.2657 153.589 77.3399C153.626 77.3647 153.688 77.3647 153.726 77.3523C153.763 77.3523 153.812 77.3152 153.837 77.2657C153.862 77.2286 153.874 77.1791 153.849 77.1296C153.837 77.0801 153.812 77.0553 153.763 77.0182C153.651 76.944 153.54 76.8698 153.428 76.7955C153.391 76.7708 153.329 76.7708 153.292 76.7832C153.255 76.7832 153.205 76.8203 153.18 76.8698C153.156 76.9069 153.143 76.9564 153.168 77.0059C153.18 77.0553 153.205 77.0801 153.255 77.1172Z" fill="#1A2844"/>
<path d="M165.718 76.3749C166.474 74.8778 166.92 73.2447 167.032 71.5744C167.044 71.3517 166.685 71.3517 166.672 71.5744C166.561 73.1828 166.14 74.7541 165.409 76.2017C165.309 76.3996 165.619 76.5852 165.718 76.3872V76.3749Z" fill="#1A2844"/>
<path d="M166.486 69.6196L166.375 69.2855C166.375 69.2855 166.338 69.1989 166.288 69.1742C166.251 69.1494 166.189 69.1371 166.152 69.1618C166.115 69.1742 166.065 69.1989 166.04 69.2484C166.016 69.2855 166.003 69.335 166.028 69.3845L166.14 69.7186C166.14 69.7186 166.177 69.8052 166.226 69.8299C166.263 69.8547 166.325 69.867 166.363 69.8423C166.4 69.8299 166.449 69.8052 166.474 69.7557C166.499 69.7186 166.511 69.6691 166.486 69.6196Z" fill="#1A2844"/>
<path d="M240.054 90.8506H148.448C145.437 90.8506 142.996 93.2879 142.996 96.2944V112.502C142.996 115.509 145.437 117.946 148.448 117.946H240.054C243.064 117.946 245.505 115.509 245.505 112.502V96.2944C245.505 93.2879 243.064 90.8506 240.054 90.8506Z" fill="#007FFF"/>
<path d="M161.803 94.9211L161.568 93.7705C161.469 93.288 161.048 92.9415 160.552 92.9415H157.702C157.207 92.9415 156.786 93.3003 156.687 93.7829L156.464 94.9335C156.402 95.2675 156.166 95.5521 155.844 95.6882L155.175 95.9604C154.853 96.0965 154.494 96.0594 154.196 95.8738L153.218 95.2304C152.809 94.9582 152.264 95.0077 151.904 95.3665L149.897 97.3832C149.55 97.7296 149.501 98.2864 149.773 98.6947L150.43 99.6721C150.628 99.9567 150.665 100.328 150.529 100.637L150.257 101.305C150.12 101.627 149.848 101.862 149.501 101.924L148.349 102.159C147.865 102.258 147.519 102.679 147.519 103.174V106.019C147.519 106.514 147.878 106.935 148.361 107.034L149.513 107.256C149.848 107.318 150.133 107.553 150.269 107.875L150.542 108.543C150.678 108.865 150.641 109.224 150.455 109.521L149.811 110.498C149.538 110.906 149.588 111.451 149.947 111.809L151.966 113.814C152.313 114.16 152.871 114.21 153.28 113.937L154.258 113.282C154.543 113.084 154.915 113.047 155.225 113.183L155.894 113.455C156.216 113.591 156.451 113.863 156.513 114.21L156.749 115.36C156.848 115.843 157.269 116.189 157.764 116.189H160.614C161.11 116.189 161.531 115.83 161.63 115.348L161.853 114.197C161.915 113.863 162.15 113.579 162.472 113.443L163.141 113.17C163.463 113.034 163.823 113.071 164.12 113.257L165.099 113.9C165.508 114.173 166.053 114.123 166.412 113.764L168.419 111.748C168.766 111.401 168.816 110.844 168.543 110.436L167.886 109.459C167.688 109.174 167.651 108.803 167.787 108.494L168.06 107.826C168.196 107.504 168.469 107.269 168.816 107.207L169.968 106.972C170.451 106.873 170.798 106.452 170.798 105.957V103.112C170.798 102.617 170.439 102.196 169.955 102.097L168.803 101.874C168.469 101.813 168.184 101.577 168.048 101.256L167.775 100.588C167.639 100.266 167.676 99.9072 167.862 99.6103L168.506 98.6328C168.778 98.2245 168.729 97.6802 168.37 97.3214L166.35 95.317C166.003 94.9706 165.446 94.9211 165.037 95.1933L164.058 95.849C163.773 96.047 163.402 96.0841 163.092 95.948L162.423 95.6758C162.101 95.5397 161.865 95.2675 161.803 94.9211Z" fill="#00B4D8"/>
<path d="M165.731 104.535C165.731 108.16 162.807 111.104 159.177 111.117C155.547 111.129 152.598 108.197 152.586 104.572C152.586 100.947 155.51 98.0019 159.14 97.9895C162.77 97.9895 165.718 100.909 165.731 104.535Z" fill="white"/>
<path d="M159.152 111.29C155.435 111.29 152.412 108.283 152.412 104.572C152.412 100.86 155.423 97.8287 159.14 97.8163H159.152C160.948 97.8163 162.633 98.5091 163.909 99.7711C165.186 101.045 165.892 102.728 165.904 104.535C165.904 106.329 165.21 108.024 163.947 109.298C162.671 110.572 160.986 111.277 159.177 111.29H159.152ZM159.152 98.1751H159.14C155.621 98.1751 152.759 101.058 152.772 104.572C152.772 106.279 153.441 107.875 154.655 109.075C155.856 110.275 157.455 110.931 159.164 110.931H159.177C160.886 110.931 162.485 110.263 163.686 109.05C164.888 107.838 165.545 106.242 165.545 104.535C165.545 102.827 164.876 101.231 163.662 100.031C162.46 98.8308 160.862 98.1751 159.152 98.1751Z" fill="#1A2844"/>
<path d="M147.779 106.18C147.618 105.252 147.63 104.299 147.791 103.371C147.828 103.149 147.494 103.05 147.444 103.273C147.258 104.262 147.258 105.277 147.432 106.279C147.469 106.502 147.816 106.403 147.779 106.18Z" fill="#1A2844"/>
<path d="M150.195 97.408C150.74 96.8017 151.359 96.2821 152.053 95.8614C152.251 95.7377 152.065 95.4284 151.867 95.5521C151.149 95.9975 150.504 96.5295 149.947 97.1605C149.798 97.3337 150.046 97.5812 150.195 97.408Z" fill="#1A2844"/>
<path d="M158.322 93.1024C158.954 93.0529 159.586 93.0034 160.217 92.9539C160.317 92.9539 160.391 92.8797 160.391 92.7807C160.391 92.6941 160.304 92.5951 160.217 92.6075C159.586 92.657 158.954 92.7065 158.322 92.756C158.223 92.756 158.148 92.8302 158.148 92.9292C158.148 93.0158 158.235 93.1148 158.322 93.1024Z" fill="#1A2844"/>
<path d="M167.131 96.4306C167.403 96.8389 167.837 97.0368 168.184 97.3585C168.617 97.7544 168.543 98.2246 168.27 98.7071C168.023 99.1401 167.701 99.5484 167.614 100.043C167.527 100.563 167.713 101.095 168.097 101.466C168.258 101.627 168.518 101.367 168.345 101.219C167.899 100.798 167.849 100.204 168.122 99.6721C168.345 99.2267 168.679 98.8432 168.816 98.373C168.939 97.94 168.816 97.507 168.506 97.1853C168.171 96.8512 167.701 96.6656 167.44 96.2697C167.316 96.0841 167.007 96.2574 167.131 96.4553V96.4306Z" fill="#1A2844"/>
<path d="M167.701 112.168C167.267 112.453 166.87 112.787 166.511 113.158C166.449 113.232 166.437 113.344 166.511 113.406C166.573 113.467 166.697 113.48 166.759 113.406C167.106 113.059 167.478 112.75 167.874 112.465C167.948 112.416 167.986 112.304 167.936 112.218C167.886 112.144 167.775 112.094 167.688 112.156L167.701 112.168Z" fill="#1A2844"/>
<path d="M159.053 115.793C158.52 115.793 157.876 115.905 157.368 115.793C156.736 115.645 156.798 114.791 156.711 114.309C156.563 113.554 155.98 112.898 155.212 112.762C154.853 112.7 154.481 112.762 154.159 112.911C153.775 113.096 153.552 113.43 153.23 113.69C152.66 114.148 152.127 113.628 151.731 113.22C151.334 112.799 150.926 112.391 150.529 111.97C150.368 111.809 150.12 112.057 150.281 112.218C150.703 112.651 151.111 113.096 151.533 113.529C151.83 113.839 152.177 114.16 152.623 114.234C152.97 114.284 153.267 114.148 153.515 113.925C153.948 113.542 154.246 113.109 154.902 113.109C155.472 113.109 155.98 113.443 156.228 113.95C156.476 114.432 156.364 115.014 156.575 115.509C156.984 116.474 158.223 116.177 159.065 116.165C159.301 116.165 159.301 115.806 159.065 115.806L159.053 115.793Z" fill="#1A2844"/>
<path d="M151.347 105.537C151.396 106.7 151.805 107.826 152.511 108.754C152.648 108.939 152.957 108.754 152.821 108.568C152.152 107.689 151.756 106.638 151.706 105.537C151.706 105.314 151.334 105.302 151.347 105.537Z" fill="#1A2844"/>
<path d="M153.255 109.818C153.366 109.892 153.478 109.966 153.589 110.04C153.626 110.065 153.688 110.065 153.726 110.053C153.763 110.053 153.812 110.015 153.837 109.966C153.862 109.929 153.874 109.879 153.849 109.83C153.837 109.78 153.812 109.756 153.763 109.719C153.651 109.644 153.54 109.57 153.428 109.496C153.391 109.471 153.329 109.471 153.292 109.483C153.255 109.483 153.205 109.521 153.18 109.57C153.156 109.607 153.143 109.657 153.168 109.706C153.18 109.756 153.205 109.78 153.255 109.818Z" fill="#1A2844"/>
<path d="M165.718 109.075C166.474 107.578 166.92 105.945 167.032 104.275C167.044 104.052 166.685 104.052 166.672 104.275C166.561 105.883 166.14 107.454 165.409 108.902C165.309 109.1 165.619 109.286 165.718 109.088V109.075Z" fill="#1A2844"/>
<path d="M166.486 102.32L166.375 101.986C166.375 101.986 166.338 101.899 166.288 101.874C166.251 101.85 166.189 101.837 166.152 101.862C166.115 101.874 166.065 101.899 166.04 101.949C166.016 101.986 166.003 102.035 166.028 102.085L166.14 102.419C166.14 102.419 166.177 102.505 166.226 102.53C166.263 102.555 166.325 102.567 166.363 102.543C166.4 102.53 166.449 102.505 166.474 102.456C166.499 102.419 166.511 102.369 166.486 102.32Z" fill="#1A2844"/>
<path d="M240.054 123.551H148.448C145.437 123.551 142.996 125.988 142.996 128.995V145.203C142.996 148.209 145.437 150.646 148.448 150.646H240.054C243.064 150.646 245.505 148.209 245.505 145.203V128.995C245.505 125.988 243.064 123.551 240.054 123.551Z" fill="#007FFF"/>
<path d="M161.803 127.621L161.568 126.471C161.469 125.988 161.048 125.642 160.552 125.642H157.702C157.207 125.642 156.786 126.001 156.687 126.483L156.464 127.634C156.402 127.968 156.166 128.252 155.844 128.389L155.175 128.661C154.853 128.797 154.494 128.76 154.196 128.574L153.218 127.931C152.809 127.659 152.264 127.708 151.904 128.067L149.897 130.084C149.55 130.43 149.501 130.987 149.773 131.395L150.43 132.372C150.628 132.657 150.665 133.028 150.529 133.337L150.257 134.006C150.12 134.327 149.848 134.562 149.501 134.624L148.349 134.859C147.865 134.958 147.519 135.379 147.519 135.874V138.719C147.519 139.214 147.878 139.635 148.361 139.734L149.513 139.957C149.848 140.019 150.133 140.254 150.269 140.575L150.542 141.243C150.678 141.565 150.641 141.924 150.455 142.221L149.811 143.198C149.538 143.607 149.588 144.151 149.947 144.51L151.966 146.514C152.313 146.861 152.871 146.91 153.28 146.638L154.258 145.982C154.543 145.784 154.915 145.747 155.225 145.883L155.894 146.155C156.216 146.291 156.451 146.564 156.513 146.91L156.749 148.061C156.848 148.543 157.269 148.89 157.764 148.89H160.614C161.11 148.89 161.531 148.531 161.63 148.048L161.853 146.898C161.915 146.564 162.15 146.279 162.472 146.143L163.141 145.871C163.463 145.735 163.823 145.772 164.12 145.957L165.099 146.601C165.508 146.873 166.053 146.823 166.412 146.465L168.419 144.448C168.766 144.101 168.816 143.545 168.543 143.136L167.886 142.159C167.688 141.874 167.651 141.503 167.787 141.194L168.06 140.526C168.196 140.204 168.469 139.969 168.816 139.907L169.968 139.672C170.451 139.573 170.798 139.153 170.798 138.658V135.812C170.798 135.317 170.439 134.896 169.955 134.797L168.803 134.575C168.469 134.513 168.184 134.278 168.048 133.956L167.775 133.288C167.639 132.966 167.676 132.608 167.862 132.311L168.506 131.333C168.778 130.925 168.729 130.38 168.37 130.022L166.35 128.017C166.003 127.671 165.446 127.621 165.037 127.894L164.058 128.549C163.773 128.747 163.402 128.784 163.092 128.648L162.423 128.376C162.101 128.24 161.865 127.968 161.803 127.621Z" fill="#00B4D8"/>
<path d="M165.731 137.235C165.731 140.86 162.807 143.805 159.177 143.817C155.547 143.817 152.598 140.897 152.586 137.272C152.586 133.647 155.51 130.702 159.14 130.69C162.77 130.69 165.718 133.61 165.731 137.235Z" fill="white"/>
<path d="M159.152 143.99C155.435 143.99 152.412 140.984 152.412 137.272C152.412 133.56 155.423 130.529 159.14 130.517H159.152C160.948 130.517 162.633 131.209 163.909 132.471C165.186 133.746 165.892 135.428 165.904 137.235C165.904 139.029 165.21 140.724 163.947 141.998C162.671 143.273 160.986 143.978 159.177 143.99H159.152ZM159.152 130.875H159.14C155.621 130.875 152.759 133.758 152.772 137.272C152.772 138.979 153.441 140.575 154.655 141.775C155.856 142.976 157.455 143.631 159.164 143.631H159.177C160.886 143.631 162.485 142.963 163.686 141.751C164.888 140.538 165.545 138.942 165.545 137.235C165.545 135.527 164.876 133.931 163.662 132.731C162.46 131.531 160.862 130.875 159.152 130.875Z" fill="#1A2844"/>
<path d="M147.779 138.88C147.618 137.952 147.63 137 147.791 136.072C147.828 135.849 147.494 135.75 147.444 135.973C147.258 136.963 147.258 137.977 147.432 138.979C147.469 139.202 147.816 139.103 147.779 138.88Z" fill="#1A2844"/>
<path d="M150.195 130.108C150.74 129.502 151.359 128.982 152.053 128.562C152.251 128.438 152.065 128.129 151.867 128.252C151.149 128.698 150.504 129.23 149.947 129.861C149.798 130.034 150.046 130.281 150.195 130.108Z" fill="#1A2844"/>
<path d="M158.322 125.803C158.954 125.753 159.586 125.704 160.217 125.654C160.317 125.654 160.391 125.58 160.391 125.481C160.391 125.394 160.304 125.295 160.217 125.308C159.586 125.357 158.954 125.407 158.322 125.456C158.223 125.456 158.148 125.531 158.148 125.63C158.148 125.716 158.235 125.815 158.322 125.803Z" fill="#1A2844"/>
<path d="M167.131 129.119C167.403 129.527 167.837 129.725 168.184 130.046C168.617 130.442 168.543 130.913 168.27 131.395C168.023 131.828 167.701 132.236 167.614 132.731C167.527 133.251 167.713 133.783 168.097 134.154C168.258 134.315 168.518 134.055 168.345 133.907C167.899 133.486 167.849 132.892 168.122 132.36C168.345 131.915 168.679 131.531 168.816 131.061C168.939 130.628 168.816 130.195 168.506 129.873C168.171 129.539 167.701 129.354 167.44 128.958C167.316 128.772 167.007 128.945 167.131 129.143V129.119Z" fill="#1A2844"/>
<path d="M167.701 144.869C167.267 145.153 166.87 145.487 166.511 145.858C166.449 145.933 166.437 146.044 166.511 146.106C166.573 146.168 166.697 146.18 166.759 146.106C167.106 145.759 167.478 145.45 167.874 145.166C167.948 145.116 167.986 145.005 167.936 144.918C167.886 144.844 167.775 144.794 167.688 144.856L167.701 144.869Z" fill="#1A2844"/>
<path d="M159.053 148.494C158.52 148.494 157.876 148.605 157.368 148.494C156.736 148.345 156.798 147.492 156.711 147.009C156.563 146.254 155.98 145.599 155.212 145.462C154.853 145.401 154.481 145.462 154.159 145.611C153.775 145.797 153.552 146.131 153.23 146.39C152.66 146.848 152.127 146.329 151.731 145.92C151.334 145.5 150.926 145.091 150.529 144.671C150.368 144.51 150.12 144.757 150.281 144.918C150.703 145.351 151.111 145.797 151.533 146.23C151.83 146.539 152.177 146.861 152.623 146.935C152.97 146.984 153.267 146.848 153.515 146.625C153.948 146.242 154.246 145.809 154.902 145.809C155.472 145.809 155.98 146.143 156.228 146.65C156.476 147.133 156.364 147.714 156.575 148.209C156.984 149.174 158.223 148.877 159.065 148.865C159.301 148.865 159.301 148.506 159.065 148.506L159.053 148.494Z" fill="#1A2844"/>
<path d="M151.347 138.237C151.396 139.4 151.805 140.526 152.511 141.454C152.648 141.639 152.957 141.454 152.821 141.268C152.152 140.39 151.756 139.338 151.706 138.237C151.706 138.014 151.334 138.002 151.347 138.237Z" fill="#1A2844"/>
<path d="M153.255 142.518C153.366 142.592 153.478 142.666 153.589 142.741C153.626 142.765 153.688 142.765 153.726 142.753C153.763 142.753 153.812 142.716 153.837 142.666C153.862 142.629 153.874 142.58 153.849 142.53C153.837 142.481 153.812 142.456 153.763 142.419C153.651 142.345 153.54 142.27 153.428 142.196C153.391 142.171 153.329 142.171 153.292 142.184C153.255 142.184 153.205 142.221 153.18 142.27C153.156 142.308 153.143 142.357 153.168 142.406C153.18 142.456 153.205 142.481 153.255 142.518Z" fill="#1A2844"/>
<path d="M165.718 141.776C166.474 140.278 166.92 138.645 167.032 136.975C167.044 136.752 166.685 136.752 166.672 136.975C166.561 138.583 166.14 140.155 165.409 141.602C165.309 141.8 165.619 141.986 165.718 141.788V141.776Z" fill="#1A2844"/>
<path d="M166.486 135.02L166.375 134.686C166.375 134.686 166.338 134.6 166.288 134.575C166.251 134.55 166.189 134.538 166.152 134.562C166.115 134.575 166.065 134.6 166.04 134.649C166.016 134.686 166.003 134.736 166.028 134.785L166.14 135.119C166.14 135.119 166.177 135.206 166.226 135.231C166.263 135.255 166.325 135.268 166.363 135.243C166.4 135.231 166.449 135.206 166.474 135.156C166.499 135.119 166.511 135.07 166.486 135.02Z" fill="#1A2844"/>
<path d="M240.054 156.251H148.448C145.437 156.251 142.996 158.689 142.996 161.695V177.903C142.996 180.909 145.437 183.347 148.448 183.347H240.054C243.064 183.347 245.505 180.909 245.505 177.903V161.695C245.505 158.689 243.064 156.251 240.054 156.251Z" fill="#007FFF"/>
<path d="M161.803 160.309L161.568 159.159C161.469 158.676 161.048 158.33 160.552 158.33H157.702C157.207 158.33 156.786 158.689 156.687 159.171L156.464 160.322C156.402 160.656 156.166 160.94 155.844 161.076L155.175 161.349C154.853 161.485 154.494 161.448 154.196 161.262L153.218 160.619C152.809 160.346 152.264 160.396 151.904 160.755L149.897 162.771C149.55 163.118 149.501 163.675 149.773 164.083L150.43 165.06C150.628 165.345 150.665 165.716 150.529 166.025L150.257 166.693C150.12 167.015 149.848 167.25 149.501 167.312L148.349 167.547C147.865 167.646 147.519 168.067 147.519 168.562V171.407C147.519 171.902 147.878 172.323 148.361 172.422L149.513 172.645C149.848 172.706 150.133 172.942 150.269 173.263L150.542 173.931C150.678 174.253 150.641 174.612 150.455 174.909L149.811 175.886C149.538 176.294 149.588 176.839 149.947 177.198L151.966 179.202C152.313 179.548 152.871 179.598 153.28 179.326L154.258 178.67C154.543 178.472 154.915 178.435 155.225 178.571L155.894 178.843C156.216 178.979 156.451 179.251 156.513 179.598L156.749 180.749C156.848 181.231 157.269 181.577 157.764 181.577H160.614C161.11 181.577 161.531 181.219 161.63 180.736L161.853 179.586C161.915 179.251 162.15 178.967 162.472 178.831L163.141 178.559C163.463 178.423 163.823 178.46 164.12 178.645L165.099 179.289C165.508 179.561 166.053 179.511 166.412 179.152L168.419 177.136C168.766 176.789 168.816 176.233 168.543 175.824L167.886 174.847C167.688 174.562 167.651 174.191 167.787 173.882L168.06 173.214C168.196 172.892 168.469 172.657 168.816 172.595L169.968 172.36C170.451 172.261 170.798 171.84 170.798 171.345V168.5C170.798 168.005 170.439 167.584 169.955 167.485L168.803 167.263C168.469 167.201 168.184 166.966 168.048 166.644L167.775 165.976C167.639 165.654 167.676 165.295 167.862 164.998L168.506 164.021C168.778 163.613 168.729 163.068 168.37 162.71L166.35 160.705C166.003 160.359 165.446 160.309 165.037 160.581L164.058 161.237C163.773 161.435 163.402 161.472 163.092 161.336L162.423 161.064C162.101 160.928 161.865 160.656 161.803 160.309Z" fill="#00B4D8"/>
<path d="M165.731 169.935C165.731 173.56 162.807 176.505 159.177 176.517C155.547 176.517 152.598 173.597 152.586 169.972C152.586 166.347 155.51 163.402 159.14 163.39C162.77 163.39 165.718 166.31 165.731 169.935Z" fill="white"/>
<path d="M159.152 176.678C155.435 176.678 152.412 173.672 152.412 169.96C152.412 166.248 155.423 163.217 159.14 163.204H159.152C160.948 163.204 162.633 163.897 163.909 165.159C165.186 166.434 165.892 168.116 165.904 169.923C165.904 171.717 165.21 173.412 163.947 174.686C162.671 175.96 160.986 176.666 159.177 176.678H159.152ZM159.152 163.563H159.14C155.621 163.563 152.759 166.446 152.772 169.96C152.772 171.667 153.441 173.263 154.655 174.463C155.856 175.663 157.455 176.319 159.164 176.319H159.177C160.886 176.319 162.485 175.651 163.686 174.439C164.888 173.226 165.545 171.63 165.545 169.923C165.545 168.215 164.876 166.619 163.662 165.419C162.46 164.219 160.862 163.563 159.152 163.563Z" fill="#1A2844"/>
<path d="M147.779 171.568C147.618 170.64 147.63 169.688 147.791 168.76C147.828 168.537 147.494 168.438 147.444 168.661C147.258 169.65 147.258 170.665 147.432 171.667C147.469 171.89 147.816 171.791 147.779 171.568Z" fill="#1A2844"/>
<path d="M150.195 162.808C150.74 162.202 151.359 161.683 152.053 161.262C152.251 161.138 152.065 160.829 151.867 160.953C151.149 161.398 150.504 161.93 149.947 162.561C149.798 162.734 150.046 162.982 150.195 162.808Z" fill="#1A2844"/>
<path d="M158.322 158.503C158.954 158.453 159.586 158.404 160.217 158.354C160.317 158.354 160.391 158.28 160.391 158.181C160.391 158.095 160.304 157.996 160.217 158.008C159.586 158.058 158.954 158.107 158.322 158.156C158.223 158.156 158.148 158.231 158.148 158.33C158.148 158.416 158.235 158.515 158.322 158.503Z" fill="#1A2844"/>
<path d="M167.131 161.819C167.403 162.227 167.837 162.425 168.184 162.747C168.617 163.143 168.543 163.613 168.27 164.095C168.023 164.528 167.701 164.937 167.614 165.431C167.527 165.951 167.713 166.483 168.097 166.854C168.258 167.015 168.518 166.755 168.345 166.607C167.899 166.186 167.849 165.592 168.122 165.06C168.345 164.615 168.679 164.231 168.816 163.761C168.939 163.328 168.816 162.895 168.506 162.573C168.171 162.239 167.701 162.054 167.44 161.658C167.316 161.472 167.007 161.646 167.131 161.843V161.819Z" fill="#1A2844"/>
<path d="M167.701 177.569C167.267 177.853 166.87 178.187 166.511 178.559C166.449 178.633 166.437 178.744 166.511 178.806C166.573 178.868 166.697 178.88 166.759 178.806C167.106 178.46 167.478 178.15 167.874 177.866C167.948 177.816 167.986 177.705 167.936 177.618C167.886 177.544 167.775 177.495 167.688 177.556L167.701 177.569Z" fill="#1A2844"/>
<path d="M159.053 181.194C158.52 181.194 157.876 181.305 157.368 181.194C156.736 181.045 156.798 180.192 156.711 179.709C156.563 178.954 155.98 178.299 155.212 178.163C154.853 178.101 154.481 178.163 154.159 178.311C153.775 178.497 153.552 178.831 153.23 179.091C152.66 179.548 152.127 179.029 151.731 178.62C151.334 178.2 150.926 177.791 150.529 177.371C150.368 177.21 150.12 177.457 150.281 177.618C150.703 178.051 151.111 178.497 151.533 178.93C151.83 179.239 152.177 179.561 152.623 179.635C152.97 179.684 153.267 179.548 153.515 179.326C153.948 178.942 154.246 178.509 154.902 178.509C155.472 178.509 155.98 178.843 156.228 179.35C156.476 179.833 156.364 180.414 156.575 180.909C156.984 181.874 158.223 181.577 159.065 181.565C159.301 181.565 159.301 181.206 159.065 181.206L159.053 181.194Z" fill="#1A2844"/>
<path d="M151.347 170.937C151.396 172.1 151.805 173.226 152.511 174.154C152.648 174.34 152.957 174.154 152.821 173.968C152.152 173.09 151.756 172.038 151.706 170.937C151.706 170.714 151.334 170.702 151.347 170.937Z" fill="#1A2844"/>
<path d="M153.255 175.218C153.366 175.292 153.478 175.367 153.589 175.441C153.626 175.465 153.688 175.465 153.726 175.453C153.763 175.453 153.812 175.416 153.837 175.367C153.862 175.329 153.874 175.28 153.849 175.23C153.837 175.181 153.812 175.156 153.763 175.119C153.651 175.045 153.54 174.971 153.428 174.896C153.391 174.872 153.329 174.872 153.292 174.884C153.255 174.884 153.205 174.921 153.18 174.971C153.156 175.008 153.143 175.057 153.168 175.107C153.18 175.156 153.205 175.181 153.255 175.218Z" fill="#1A2844"/>
<path d="M165.718 174.476C166.474 172.979 166.92 171.345 167.032 169.675C167.044 169.453 166.685 169.453 166.672 169.675C166.561 171.284 166.14 172.855 165.409 174.302C165.309 174.5 165.619 174.686 165.718 174.488V174.476Z" fill="#1A2844"/>
<path d="M166.486 167.72L166.375 167.386C166.375 167.386 166.338 167.3 166.288 167.275C166.251 167.25 166.189 167.238 166.152 167.263C166.115 167.275 166.065 167.3 166.04 167.349C166.016 167.386 166.003 167.436 166.028 167.485L166.14 167.819C166.14 167.819 166.177 167.906 166.226 167.931C166.263 167.955 166.325 167.968 166.363 167.943C166.4 167.931 166.449 167.906 166.474 167.856C166.499 167.819 166.511 167.77 166.486 167.72Z" fill="#1A2844"/>
<path d="M240.054 188.951H148.448C145.437 188.951 142.996 191.389 142.996 194.395V210.603C142.996 213.61 145.437 216.047 148.448 216.047H240.054C243.064 216.047 245.505 213.61 245.505 210.603V194.395C245.505 191.389 243.064 188.951 240.054 188.951Z" fill="#007FFF"/>
<path d="M161.803 193.01L161.568 191.859C161.469 191.376 161.048 191.03 160.552 191.03H157.702C157.207 191.03 156.786 191.389 156.687 191.871L156.464 193.022C156.402 193.356 156.166 193.641 155.844 193.777L155.175 194.049C154.853 194.185 154.494 194.148 154.196 193.962L153.218 193.319C152.809 193.047 152.264 193.096 151.904 193.455L149.897 195.472C149.55 195.818 149.501 196.375 149.773 196.783L150.43 197.761C150.628 198.045 150.665 198.416 150.529 198.726L150.257 199.394C150.12 199.715 149.848 199.951 149.501 200.012L148.349 200.247C147.865 200.346 147.519 200.767 147.519 201.262V204.108C147.519 204.603 147.878 205.023 148.361 205.122L149.513 205.345C149.848 205.407 150.133 205.642 150.269 205.964L150.542 206.632C150.678 206.953 150.641 207.312 150.455 207.609L149.811 208.586C149.538 208.995 149.588 209.539 149.947 209.898L151.966 211.902C152.313 212.249 152.871 212.298 153.28 212.026L154.258 211.37C154.543 211.172 154.915 211.135 155.225 211.271L155.894 211.543C156.216 211.68 156.451 211.952 156.513 212.298L156.749 213.449C156.848 213.931 157.269 214.278 157.764 214.278H160.614C161.11 214.278 161.531 213.919 161.63 213.436L161.853 212.286C161.915 211.952 162.15 211.667 162.472 211.531L163.141 211.259C163.463 211.123 163.823 211.16 164.12 211.346L165.099 211.989C165.508 212.261 166.053 212.212 166.412 211.853L168.419 209.836C168.766 209.49 168.816 208.933 168.543 208.525L167.886 207.547C167.688 207.263 167.651 206.891 167.787 206.582L168.06 205.914C168.196 205.592 168.469 205.357 168.816 205.295L169.968 205.06C170.451 204.961 170.798 204.541 170.798 204.046V201.2C170.798 200.705 170.439 200.285 169.955 200.186L168.803 199.963C168.469 199.901 168.184 199.666 168.048 199.344L167.775 198.676C167.639 198.355 167.676 197.996 167.862 197.699L168.506 196.721C168.778 196.313 168.729 195.769 168.37 195.41L166.35 193.406C166.003 193.059 165.446 193.01 165.037 193.282L164.058 193.938C163.773 194.136 163.402 194.173 163.092 194.037L162.423 193.764C162.101 193.628 161.865 193.356 161.803 193.01Z" fill="#00B4D8"/>
<path d="M165.731 202.623C165.731 206.248 162.807 209.193 159.177 209.205C155.547 209.205 152.598 206.285 152.586 202.66C152.586 199.035 155.51 196.09 159.14 196.078C162.77 196.078 165.718 198.998 165.731 202.623Z" fill="white"/>
<path d="M159.152 209.378C155.435 209.378 152.412 206.372 152.412 202.66C152.412 198.948 155.423 195.917 159.14 195.905H159.152C160.948 195.905 162.633 196.598 163.909 197.86C165.186 199.134 165.892 200.817 165.904 202.623C165.904 204.417 165.21 206.112 163.947 207.386C162.671 208.661 160.986 209.366 159.177 209.378H159.152ZM159.152 196.264H159.14C155.621 196.264 152.759 199.146 152.772 202.66C152.772 204.368 153.441 205.964 154.655 207.164C155.856 208.364 157.455 209.02 159.164 209.02H159.177C160.886 209.02 162.485 208.351 163.686 207.139C164.888 205.926 165.545 204.33 165.545 202.623C165.545 200.916 164.876 199.32 163.662 198.119C162.46 196.919 160.862 196.264 159.152 196.264Z" fill="#1A2844"/>
<path d="M147.779 204.269C147.618 203.341 147.63 202.388 147.791 201.46C147.828 201.237 147.494 201.138 147.444 201.361C147.258 202.351 147.258 203.365 147.432 204.367C147.469 204.59 147.816 204.491 147.779 204.269Z" fill="#1A2844"/>
<path d="M150.195 195.509C150.74 194.903 151.359 194.383 152.053 193.962C152.251 193.839 152.065 193.529 151.867 193.653C151.149 194.098 150.504 194.63 149.947 195.261C149.798 195.435 150.046 195.682 150.195 195.509Z" fill="#1A2844"/>
<path d="M158.322 191.203C158.954 191.154 159.586 191.104 160.217 191.055C160.317 191.055 160.391 190.981 160.391 190.882C160.391 190.795 160.304 190.696 160.217 190.708C159.586 190.758 158.954 190.807 158.322 190.857C158.223 190.857 158.148 190.931 158.148 191.03C158.148 191.117 158.235 191.216 158.322 191.203Z" fill="#1A2844"/>
<path d="M167.131 194.519C167.403 194.927 167.837 195.125 168.184 195.447C168.617 195.843 168.543 196.313 168.27 196.796C168.023 197.229 167.701 197.637 167.614 198.132C167.527 198.651 167.713 199.183 168.097 199.555C168.258 199.715 168.518 199.456 168.345 199.307C167.899 198.887 167.849 198.293 168.122 197.761C168.345 197.315 168.679 196.932 168.816 196.462C168.939 196.028 168.816 195.595 168.506 195.274C168.171 194.94 167.701 194.754 167.44 194.358C167.316 194.173 167.007 194.346 167.131 194.544V194.519Z" fill="#1A2844"/>
<path d="M167.701 210.269C167.267 210.554 166.87 210.888 166.511 211.259C166.449 211.333 166.437 211.445 166.511 211.506C166.573 211.568 166.697 211.581 166.759 211.506C167.106 211.16 167.478 210.851 167.874 210.566C167.948 210.517 167.986 210.405 167.936 210.319C167.886 210.244 167.775 210.195 167.688 210.257L167.701 210.269Z" fill="#1A2844"/>
<path d="M159.053 213.894C158.52 213.894 157.876 214.006 157.368 213.894C156.736 213.746 156.798 212.892 156.711 212.41C156.563 211.655 155.98 210.999 155.212 210.863C154.853 210.801 154.481 210.863 154.159 211.011C153.775 211.197 153.552 211.531 153.23 211.791C152.66 212.249 152.127 211.729 151.731 211.321C151.334 210.9 150.926 210.492 150.529 210.071C150.368 209.91 150.12 210.158 150.281 210.319C150.703 210.752 151.111 211.197 151.533 211.63C151.83 211.939 152.177 212.261 152.623 212.335C152.97 212.385 153.267 212.249 153.515 212.026C153.948 211.642 154.246 211.209 154.902 211.209C155.472 211.209 155.98 211.543 156.228 212.051C156.476 212.533 156.364 213.115 156.575 213.61C156.984 214.575 158.223 214.278 159.065 214.265C159.301 214.265 159.301 213.907 159.065 213.907L159.053 213.894Z" fill="#1A2844"/>
<path d="M151.347 203.638C151.396 204.801 151.805 205.926 152.511 206.854C152.648 207.04 152.957 206.854 152.821 206.669C152.152 205.79 151.756 204.739 151.706 203.638C151.706 203.415 151.334 203.402 151.347 203.638Z" fill="#1A2844"/>
<path d="M153.255 207.918C153.366 207.993 153.478 208.067 153.589 208.141C153.626 208.166 153.688 208.166 153.726 208.153C153.763 208.153 153.812 208.116 153.837 208.067C153.862 208.03 153.874 207.98 153.849 207.931C153.837 207.881 153.812 207.856 153.763 207.819C153.651 207.745 153.54 207.671 153.428 207.597C153.391 207.572 153.329 207.572 153.292 207.584C153.255 207.584 153.205 207.621 153.18 207.671C153.156 207.708 153.143 207.758 153.168 207.807C153.18 207.857 153.205 207.881 153.255 207.918Z" fill="#1A2844"/>
<path d="M165.718 207.176C166.474 205.679 166.92 204.046 167.032 202.376C167.044 202.153 166.685 202.153 166.672 202.376C166.561 203.984 166.14 205.555 165.409 207.003C165.309 207.201 165.619 207.386 165.718 207.188V207.176Z" fill="#1A2844"/>
<path d="M166.486 200.421L166.375 200.087C166.375 200.087 166.338 200 166.288 199.975C166.251 199.951 166.189 199.938 166.152 199.963C166.115 199.975 166.065 200 166.04 200.05C166.016 200.087 166.003 200.136 166.028 200.186L166.14 200.52C166.14 200.52 166.177 200.606 166.226 200.631C166.263 200.656 166.325 200.668 166.363 200.643C166.4 200.631 166.449 200.606 166.474 200.557C166.499 200.52 166.511 200.47 166.486 200.421Z" fill="#1A2844"/>
<path d="M95.3228 186.625C95.3228 186.625 90.1936 192.675 86.6503 193.999C83.107 195.323 86.2538 187.788 86.2538 187.788L95.3228 186.625Z" fill="#1A2844"/>
<path d="M91.4821 185.908L96.9705 217.693L88.4963 226.465L85.2875 225.636L84.953 188.11L91.4821 185.908Z" fill="#F1A8A9"/>
<path d="M78.4858 128.45C82.2026 128.685 85.9069 126.1 86.9848 122.549C87.4308 121.076 87.4308 119.406 86.6255 118.107C85.4362 116.177 82.4875 115.62 80.6787 116.993C80.1336 116.313 78.8823 116.424 78.4734 117.191C77.9778 114.94 75.6611 113.232 73.3443 113.443C71.0399 113.653 69.0576 115.731 68.9709 118.045C67.2983 117.414 65.601 116.783 63.817 116.709C62.0329 116.635 60.1374 117.229 59.0595 118.651C58.0684 119.963 57.9692 121.893 58.8241 123.303C57.1639 123.056 55.2684 123.402 54.0419 124.541C52.8153 125.679 52.3445 127.658 53.1994 129.106C53.8312 130.17 55.033 130.789 55.702 131.816C54.7357 132.867 54.8843 134.748 56.0241 135.639C56.4206 135.948 56.9285 136.158 57.1639 136.604C57.3993 137.049 57.3126 137.581 57.3002 138.088C57.2754 140.365 59.3568 142.27 61.5993 142.641C63.8417 143.013 66.1337 142.134 68.0293 140.885C70.024 139.561 71.7337 137.791 72.9726 135.75C74.608 133.065 75.6734 129.91 78.4858 128.475V128.45Z" fill="#1A2844"/>
<path d="M49.3463 156.35C49.3463 156.35 29.5483 161.212 27.2068 164.986C24.8776 168.76 12.2654 239.728 12.2654 239.728C12.2654 239.728 73.8398 241.101 87.2945 237.736C87.2945 237.736 89.537 177.148 84.1848 170.64C78.8327 164.132 72.6133 160.322 72.6133 160.322L49.3339 156.35H49.3463Z" fill="#007FFF"/>
<path d="M61.1285 136.802C61.1285 136.802 59.6913 141.169 63.3337 144.04C67.9054 147.64 73.0221 149.211 75.0168 147.912C76.7017 146.811 78.4981 142.666 79.3282 131.011C79.3282 131.011 80.245 122.71 74.6327 121.311C68.5 119.777 64.1514 128.054 63.0364 130.974C61.9338 133.894 61.1285 136.802 61.1285 136.802Z" fill="#F1A8A9"/>
<path d="M71.2133 139.449C71.647 140.377 72.7124 140.971 73.7284 140.847C73.9142 140.823 74.1 140.699 74.0876 140.489C74.0876 140.315 73.9266 140.105 73.7284 140.13C73.6292 140.142 73.5177 140.155 73.4186 140.142C73.3691 140.142 73.3195 140.142 73.2576 140.142C73.1585 140.142 73.3319 140.155 73.2328 140.142C73.208 140.142 73.1956 140.142 73.1708 140.142C73.0717 140.117 72.9602 140.093 72.8611 140.056C72.8363 140.056 72.7992 140.031 72.7744 140.019C72.7992 140.031 72.8116 140.031 72.7744 140.019C72.7248 139.994 72.6753 139.969 72.6133 139.944C72.5638 139.92 72.5266 139.895 72.4771 139.858C72.4523 139.845 72.4275 139.833 72.4151 139.808C72.4151 139.808 72.3408 139.759 72.3779 139.783C72.4151 139.808 72.3408 139.746 72.3408 139.759C72.316 139.746 72.3036 139.722 72.2788 139.709C72.2417 139.672 72.2045 139.635 72.1673 139.598C72.1302 139.561 72.093 139.524 72.0682 139.474C72.0558 139.449 72.031 139.425 72.0682 139.462C72.0558 139.437 72.0434 139.425 72.0187 139.4C71.9567 139.313 71.9071 139.214 71.8576 139.115C71.7833 138.942 71.5107 138.893 71.362 138.992C71.1886 139.103 71.1514 139.301 71.2381 139.487L71.2133 139.449Z" fill="#1A2844"/>
<path d="M70.6807 141.676C70.7674 141.887 70.9656 142.072 71.1638 142.184C71.263 142.233 71.3868 142.283 71.4984 142.307C71.5727 142.307 71.647 142.332 71.709 142.332C71.7833 142.332 71.8576 142.332 71.932 142.307C72.0187 142.295 72.1054 142.208 72.1426 142.147C72.1921 142.072 72.2045 141.961 72.1798 141.874C72.155 141.788 72.093 141.701 72.0187 141.664C71.932 141.615 71.8453 141.615 71.7461 141.627C71.7461 141.627 71.7337 141.627 71.7214 141.627C71.7585 141.627 71.7833 141.627 71.8205 141.615C71.7585 141.615 71.6842 141.615 71.6222 141.615C71.6594 141.615 71.6842 141.615 71.7214 141.627C71.647 141.627 71.5851 141.602 71.5107 141.565C71.5355 141.565 71.5727 141.59 71.5975 141.602C71.5355 141.577 71.4736 141.54 71.4116 141.491C71.4364 141.516 71.4612 141.528 71.486 141.553C71.4364 141.516 71.3869 141.466 71.3373 141.404C71.3621 141.429 71.3745 141.454 71.3992 141.478C71.3621 141.429 71.3373 141.379 71.3125 141.318C71.2753 141.243 71.1762 141.169 71.1019 141.157C71.0152 141.132 70.9037 141.144 70.8293 141.194C70.755 141.243 70.6807 141.318 70.6683 141.404C70.6683 141.441 70.6683 141.466 70.6559 141.503C70.6559 141.565 70.6683 141.627 70.7054 141.689L70.6807 141.676Z" fill="#1A2844"/>
<path d="M70.6311 133.634C70.5196 134.253 70.1355 134.686 69.7762 134.624C69.4045 134.562 69.2063 134.005 69.3054 133.399C69.4169 132.781 69.801 132.348 70.1603 132.409C70.5319 132.471 70.7302 133.028 70.6311 133.634Z" fill="#1A2844"/>
<path d="M70.1727 137.42C69.9001 138.237 68.7975 138.596 67.6948 138.237C66.5922 137.878 65.9108 136.925 66.1834 136.109C66.4559 135.292 67.5586 134.933 68.6612 135.292C69.7638 135.651 70.4452 136.604 70.1727 137.42Z" fill="#EA8B96"/>
<path d="M78.3371 138.608C77.9902 139.388 77.123 139.771 76.3796 139.449C75.6363 139.128 75.3142 138.237 75.6611 137.445C76.0079 136.666 76.8752 136.282 77.6186 136.604C78.3619 136.925 78.684 137.816 78.3371 138.608Z" fill="#EA8B96"/>
<path d="M74.2611 132.731C74.0009 133.535 73.8894 134.401 74.1372 135.218C74.3107 135.787 74.6328 136.27 75.0168 136.703C75.1531 136.851 75.2894 137 75.4257 137.148C75.4876 137.222 75.4257 137.148 75.4629 137.185C75.4752 137.21 75.5 137.247 75.5124 137.272C75.5124 137.272 75.4876 137.272 75.5248 137.247C75.4752 137.272 75.4381 137.309 75.3885 137.334C75.0045 137.507 74.6204 137.532 74.2859 137.816C73.939 138.113 73.7903 138.534 74.0009 138.955C74.2115 139.363 74.831 139.004 74.6204 138.596C74.5584 138.472 74.8434 138.299 74.9301 138.249C75.1036 138.163 75.2894 138.126 75.4752 138.064C75.7974 137.952 76.1319 137.792 76.2186 137.42C76.3177 136.975 75.9336 136.629 75.6611 136.344C75.339 135.998 75.0416 135.639 74.8806 135.193C74.608 134.451 74.7071 133.659 74.9425 132.917C75.0788 132.471 74.385 132.286 74.2487 132.719L74.2611 132.731Z" fill="#1A2844"/>
<path d="M78.0646 134.488C77.9655 135.02 77.631 135.416 77.3088 135.354C76.9867 135.292 76.8009 134.822 76.9 134.278C76.9991 133.746 77.3336 133.35 77.6557 133.412C77.9779 133.474 78.1637 133.944 78.0646 134.488Z" fill="#1A2844"/>
<path d="M67.8558 130.38C67.7071 130.356 67.5585 130.306 67.4965 130.17C67.4346 130.009 67.5337 129.836 67.6328 129.7C68.3638 128.698 69.5036 127.634 70.8292 127.733C71.1513 127.757 71.4982 127.856 71.6717 128.129C71.8327 128.364 71.8327 128.673 71.7212 128.933C71.6097 129.193 71.4115 129.403 71.1885 129.576C70.3089 130.257 69.1443 130.38 68.0293 130.393C67.9673 130.393 67.9054 130.393 67.8434 130.393L67.8558 130.38Z" fill="#1A2844"/>
<path d="M78.5849 132.224C78.684 132.261 78.7955 132.261 78.8698 132.174C78.9565 132.075 78.9442 131.915 78.9194 131.791C78.7335 130.851 78.2999 129.737 77.4327 129.415C77.2221 129.341 76.9743 129.304 76.776 129.453C76.615 129.576 76.5159 129.799 76.5159 130.022C76.5159 130.244 76.5778 130.455 76.6769 130.64C77.0486 131.395 77.7548 131.84 78.461 132.174C78.4981 132.199 78.5477 132.212 78.5849 132.224Z" fill="#1A2844"/>
<path d="M68.2276 135.107C68.0541 135.107 67.9055 134.983 67.8683 134.81C67.8311 134.612 67.9674 134.426 68.1656 134.389C68.2276 134.389 69.7886 134.104 70.9037 134.265C71.1019 134.29 71.2382 134.476 71.2134 134.674C71.1886 134.872 71.0028 135.008 70.8046 134.983C69.8134 134.847 68.3019 135.094 68.2895 135.107C68.2648 135.107 68.2524 135.107 68.2276 135.107Z" fill="#1A2844"/>
<path d="M78.1142 135.985C78.1142 135.985 78.0522 135.985 78.0274 135.985C77.0735 135.75 76.3053 135.923 76.2929 135.923C76.1071 135.973 75.9089 135.849 75.8593 135.651C75.8098 135.453 75.9337 135.268 76.1319 135.218C76.169 135.218 77.0735 135.02 78.1885 135.28C78.3867 135.329 78.4982 135.527 78.4487 135.713C78.4115 135.874 78.2628 135.985 78.1018 135.985H78.1142Z" fill="#1A2844"/>
<path d="M63.2842 131.63C63.7426 133.808 62.7639 135.849 61.0913 136.208C59.4188 136.567 57.6967 135.082 57.2507 132.904C56.8047 130.727 57.771 128.685 59.4436 128.327C61.1161 127.98 62.8382 129.453 63.2842 131.63Z" fill="#F1A8A9"/>
<path d="M58.9852 130.714C60.348 131.519 61.0666 133.226 60.6949 134.76C60.5834 135.206 61.2772 135.404 61.3887 134.958C61.8471 133.115 60.9923 131.073 59.3445 130.096C58.9481 129.861 58.5764 130.479 58.9852 130.714Z" fill="#1A2844"/>
<path d="M60.571 132.224C59.5799 132.645 59.0348 133.82 59.2701 134.859C59.3073 135.045 59.5303 135.169 59.7162 135.107C59.9144 135.045 60.0135 134.859 59.9639 134.661C59.9639 134.612 59.9392 134.562 59.9392 134.513C59.9516 134.599 59.9392 134.5 59.9392 134.488C59.9392 134.463 59.9392 134.439 59.9392 134.414C59.9392 134.364 59.9392 134.315 59.9392 134.265C59.9392 134.241 59.9392 134.216 59.9392 134.191C59.9392 134.179 59.9516 134.08 59.9392 134.166C59.9639 134.067 59.9763 133.968 60.0135 133.869C60.0259 133.82 60.0507 133.77 60.0631 133.721C60.0383 133.795 60.0631 133.709 60.0755 133.696C60.0755 133.671 60.1002 133.647 60.1126 133.622C60.1622 133.535 60.2117 133.449 60.2737 133.362C60.2861 133.337 60.3108 133.313 60.2737 133.35C60.2985 133.325 60.3108 133.3 60.3356 133.276C60.3728 133.238 60.41 133.201 60.4471 133.164C60.4843 133.127 60.5215 133.09 60.5586 133.065C60.5215 133.09 60.633 133.003 60.5586 133.065C60.5834 133.053 60.5958 133.04 60.6206 133.016C60.7197 132.954 60.8188 132.904 60.9179 132.855C61.0914 132.781 61.1409 132.508 61.0418 132.36C60.9303 132.174 60.7321 132.15 60.5462 132.236L60.571 132.224Z" fill="#1A2844"/>
<path d="M61.3267 136.134C61.3267 136.134 59.0347 150.275 56.8542 152.539C54.6861 154.804 49.3463 156.35 49.3463 156.35C49.3463 156.35 64.7461 178.224 72.6257 160.322C72.6257 160.322 69.3054 158.787 68.7602 155.657C68.116 151.983 69.0947 145.005 69.0947 145.005L61.3267 136.134Z" fill="#F1A8A9"/>
<path d="M68.8346 147.306C68.8346 147.306 60.5958 143.334 60.8683 138.447C60.8683 138.447 59.7285 145.747 68.5992 150.461L68.8346 147.294V147.306Z" fill="#1A2844"/>
<path d="M69.355 136.492C69.0824 136.492 68.7975 136.48 68.5125 136.455C65.886 136.195 63.9409 134.859 64.0772 133.412C64.1515 132.669 64.7338 132.051 65.7249 131.655C66.6294 131.296 67.8063 131.16 69.0205 131.271C70.2346 131.395 71.3496 131.741 72.1797 132.273C73.0718 132.855 73.5302 133.573 73.4558 134.315C73.3815 135.057 72.7992 135.676 71.8081 136.072C71.1143 136.344 70.2718 136.492 69.3674 136.492H69.355ZM68.1656 131.952C67.3603 131.952 66.6046 132.075 65.9975 132.323C65.2789 132.607 64.8453 133.028 64.8081 133.474C64.7214 134.377 66.2205 135.503 68.5869 135.725C69.6895 135.837 70.7302 135.725 71.5355 135.391C72.2541 135.107 72.6877 134.686 72.7249 134.241C72.7744 133.795 72.4275 133.3 71.7709 132.88C71.0399 132.41 70.0364 132.088 68.9338 131.989C68.6736 131.964 68.4134 131.952 68.1532 131.952H68.1656Z" fill="#1A2844"/>
<path d="M79.4893 137.358C79.3035 137.358 79.1052 137.358 78.9194 137.334C76.7513 137.123 75.1655 135.824 75.3017 134.377C75.3761 133.659 75.8593 133.028 76.6769 132.607C77.4451 132.224 78.4238 132.063 79.415 132.162C80.4185 132.261 81.3477 132.607 82.0167 133.127C82.7353 133.696 83.0946 134.401 83.0326 135.119C82.9583 135.837 82.4751 136.468 81.6574 136.888C81.038 137.198 80.2822 137.371 79.4893 137.371V137.358ZM78.8451 132.843C78.1637 132.843 77.5194 132.979 77.0115 133.238C76.4168 133.535 76.0699 133.956 76.0203 134.426C75.9212 135.441 77.284 136.431 78.9813 136.604C79.8486 136.69 80.6787 136.554 81.3229 136.233C81.9176 135.936 82.2645 135.515 82.314 135.045C82.3636 134.575 82.1034 134.092 81.5831 133.684C81.0132 133.238 80.2203 132.954 79.353 132.867C79.1796 132.855 79.0185 132.843 78.8451 132.843Z" fill="#1A2844"/>
<path d="M84.1972 170.64C84.1972 170.64 89.6113 178.101 95.3227 186.625C95.3227 186.625 89.4379 187.244 85.1884 190.671C80.9389 194.098 84.1972 170.64 84.1972 170.64Z" fill="#007FFF"/>
<path d="M48.9375 156.969C52.0348 161.175 56.3834 165.481 61.5374 167.003C63.817 167.683 66.3444 167.658 68.401 166.322C70.4948 164.961 71.6717 162.648 72.7496 160.482C72.9602 160.062 72.3284 159.703 72.1301 160.124C71.139 162.116 70.0735 164.306 68.178 165.605C66.0346 167.089 63.371 166.916 61.017 166.075C56.3834 164.405 52.4313 160.495 49.5694 156.598C49.2968 156.226 48.665 156.598 48.9499 156.956L48.9375 156.969Z" fill="#1A2844"/>
<path d="M18.1007 193.01C18.1007 193.01 33.3271 181.788 47.7357 187.553C47.7357 187.553 30.0439 197.365 18.1007 193.01Z" fill="#1A2844"/>
<path d="M43.3375 183.173C43.3375 183.173 45.3322 214.958 46.695 215.23C48.0702 215.503 80.9512 228.11 80.9512 228.11C80.9512 228.11 87.7777 223.693 89.1529 224.67C90.5157 225.648 91.482 232.502 91.482 232.502C91.482 232.502 86.2662 236.56 85.8573 236.177C85.4485 235.793 33.7978 227.566 31.8775 225.648C29.9571 223.73 20.6528 182.481 20.6528 182.481L43.3251 183.173H43.3375Z" fill="#F1A8A9"/>
<path d="M27.2192 164.986C27.2192 164.986 19.0299 174.748 18.1007 193.01C18.1007 193.01 33.8474 182.988 47.7357 187.553C47.7357 187.553 41.1571 170.764 38.7907 167.102C36.4244 163.452 27.2192 164.986 27.2192 164.986Z" fill="#007FFF"/>
<path d="M154.357 234.309H90.8627C88.3105 234.309 86.5388 231.772 87.4185 229.384L102.719 187.9C103.487 185.796 105.494 184.411 107.737 184.411H171.232C173.784 184.411 175.555 186.947 174.676 189.335L159.375 230.82C158.607 232.923 156.6 234.309 154.357 234.309Z" fill="#1A2844"/>
<path d="M137.52 210.022C137.013 211.741 135.588 212.843 134.324 212.484C133.06 212.113 132.441 210.417 132.949 208.698C133.457 206.978 134.882 205.877 136.145 206.236C137.409 206.607 138.028 208.302 137.52 210.022Z" fill="white"/>
<path d="M93.1299 223.087C92.4732 224.732 91.829 226.378 91.1724 228.024C91.0113 228.419 91.6556 228.58 91.8042 228.197C92.4609 226.551 93.1051 224.906 93.7617 223.26C93.9228 222.864 93.2785 222.703 93.1299 223.087Z" fill="white"/>
<path d="M166.598 203.167C167.651 200.124 168.692 197.08 169.745 194.036C169.881 193.641 169.249 193.467 169.113 193.863C168.06 196.907 167.019 199.951 165.966 202.994C165.83 203.39 166.462 203.563 166.598 203.167Z" fill="white"/>
<path d="M69.7142 232.985H154.791V238.095C154.791 238.998 154.06 239.728 153.156 239.728H67.5337C66.6293 239.728 65.8983 238.998 65.8983 238.095V236.796C65.8983 234.692 67.608 232.985 69.7142 232.985Z" fill="#1A2844"/>
<path d="M48.0455 187.306C47.0544 182.505 46.1004 177.643 44.6261 172.966C43.3872 169.057 41.6031 165.283 38.6173 162.4C38.2828 162.078 37.7748 162.586 38.1094 162.907C41.2067 165.902 42.9411 169.848 44.1677 173.919C45.4933 178.373 46.4225 182.951 47.3517 187.504C47.4508 187.962 48.1446 187.764 48.0455 187.306Z" fill="#1A2844"/>
<path d="M87.6662 195.237C87.4308 186.749 85.8573 178.361 83.0078 170.356C82.8591 169.923 82.153 170.108 82.314 170.554C85.1388 178.497 86.7122 186.811 86.9476 195.237C86.96 195.694 87.6785 195.707 87.6662 195.237Z" fill="#1A2844"/>
<path d="M44.1429 217.668C44.8739 216.752 45.7411 215.948 46.6951 215.292C46.8561 215.181 46.9305 214.971 46.819 214.797C46.7199 214.637 46.4845 214.562 46.3234 214.674C45.3075 215.367 44.3907 216.208 43.6226 217.161C43.4987 217.309 43.4739 217.519 43.6226 217.668C43.7465 217.791 44.0066 217.816 44.1305 217.668H44.1429Z" fill="#1A2844"/>
<path d="M59.1338 216.963C65.4771 211.63 72.5885 207.275 80.2202 204.021C80.6662 203.835 80.2822 203.18 79.8362 203.365C72.1548 206.644 64.9939 211.049 58.601 216.418C58.2294 216.727 58.7621 217.272 59.1338 216.95V216.963Z" fill="#1A2844"/>
<path d="M72.031 211.333C73.1832 210.356 74.5708 209.663 76.0451 209.304C76.5159 209.193 76.3177 208.463 75.8469 208.574C74.2363 208.958 72.7496 209.725 71.4983 210.789C71.3372 210.925 71.362 211.185 71.4983 211.321C71.6594 211.482 71.8824 211.457 72.031 211.321V211.333Z" fill="#1A2844"/>
<path d="M20.0087 211.432C17.9645 218.596 16.3291 225.871 15.1149 233.22C15.0406 233.678 15.7344 233.863 15.8087 233.405C17.0353 226.056 18.6706 218.781 20.7025 211.618C20.8264 211.172 20.1326 210.974 20.0087 211.432Z" fill="#1A2844"/>
<path d="M15.0654 234.655C14.8795 235.484 14.6937 236.313 14.5079 237.13C14.4707 237.315 14.5698 237.525 14.7556 237.575C14.9415 237.624 15.1521 237.513 15.2017 237.328C15.3875 236.499 15.5733 235.67 15.7592 234.853C15.7963 234.667 15.6972 234.457 15.5114 234.408C15.3255 234.358 15.1149 234.469 15.0654 234.655Z" fill="#1A2844"/>
<path d="M80.7901 230.572C80.691 228.209 83.0822 226.848 84.9158 225.933C86.9228 224.943 89.1157 224.337 91.3458 224.139C91.8042 224.101 91.8042 223.371 91.3458 223.421C88.8555 223.644 86.4272 224.337 84.1972 225.487C82.2149 226.514 79.9601 228.073 80.0592 230.572C80.0716 231.03 80.8025 231.042 80.7778 230.572H80.7901Z" fill="#1A2844"/>
<path d="M265.712 239.604H0.334509C0.148671 239.604 0 239.443 0 239.245C0 239.047 0.148671 238.886 0.334509 238.886H265.712C265.898 238.886 266.046 239.047 266.046 239.245C266.046 239.443 265.898 239.604 265.712 239.604Z" fill="#1A2844"/>
<path d="M202.923 21.0331C174.874 20.1547 146.75 22.0229 119.073 26.6254C119.432 24.8314 120.002 22.3198 121.724 21.6888C123.434 21.0579 125.466 21.3795 126.903 22.5054C127.014 17.4946 130.744 12.9787 135.662 11.9641C140.581 10.9496 146.032 13.6963 148.126 18.2493C150.393 11.1847 155.547 4.60255 162.386 1.69503C167.527 -0.494884 173.858 -0.841311 178.442 2.36314C182.506 5.19642 184.426 10.1454 186.123 14.7974C186.161 12.9539 189.146 11.7662 190.745 12.6941C192.343 13.622 193.086 15.4903 193.73 17.2224C194.536 15.3665 196.741 14.8222 198.575 15.7006C200.408 16.579 202.081 19.202 202.948 21.0331H202.923Z" fill="#E1ECF2"/>
<path d="M59.0595 101.503C43.957 102.468 28.8545 103.433 13.7521 104.398C14.9786 101.788 18.3361 99.8825 20.6157 101.639C22.0529 99.5732 23.6015 97.309 25.6086 95.7996C29.1519 93.1272 34.1076 91.494 38.0102 93.5973C40.6243 95.0078 42.173 97.7421 43.5977 100.34C43.9074 98.7319 44.7871 97.0121 46.4348 97.0987C48.0826 97.1853 49.5445 98.6081 49.6808 100.241C50.7959 98.571 52.4684 97.1729 54.4631 97.4204C56.4577 97.6678 58.3657 99.6103 59.0471 101.503H59.0595Z" fill="#E1ECF2"/>
</g>
<defs>
<clipPath id="clip0_53_118">
<rect width="281" height="240" fill="white"/>
</clipPath>
</defs>
</svg>
