<svg width="24" height="24" viewBox="0 0 24 24" fill="none" xmlns="http://www.w3.org/2000/svg">
<g id="RU">
<g id="RU_icon">
<path fill-rule="evenodd" clip-rule="evenodd" d="M4.935 14.0804L6.585 17.7932V17.7883H10.715L8.545 13.6176C9.5 13.1596 10.7 12.0812 10.7 10.0476C10.7 7.83668 9.19 6 6.39 6H0V17.7932H3.625V14.0804H4.935ZM5.83 9.11202C6.44 9.11202 7.015 9.39762 7.015 10.0328H7.02C7.02 10.6877 6.445 10.9684 5.835 10.9684H3.625V9.11202H5.83Z" fill="white"/>
<path d="M12.17 6V12.943C12.17 15.8629 14.055 18 18.095 18C22.135 18 24 15.8629 24 12.9282V6H20.32V12.8248C20.32 13.9573 19.585 14.8584 18.095 14.8584C16.605 14.8584 15.85 13.9573 15.85 12.8248V6H12.17Z" fill="white"/>
</g>
</g>
</svg>
