<svg width="24" height="24" viewBox="0 0 24 24" fill="none" xmlns="http://www.w3.org/2000/svg">
<g id="Uz" clip-path="url(#clip0_52_115)">
<g id="Uz_icon">
<path d="M0 6L2.4078e-08 12.9451L0.00500034 12.9451C0.00500035 15.8605 1.975 18 6.205 18C10.435 18 12.39 15.8605 12.39 12.9263L12.39 6L8.53501 6L8.53501 12.8229C8.53501 13.9514 7.76501 14.8542 6.205 14.8542C4.645 14.8542 3.855 13.9561 3.855 12.8229L3.855 6L0 6Z" fill="white"/>
<path d="M14.075 14.9624L14.075 17.7931L24 17.7931L24 14.6803L19.075 14.6803L23.865 8.81191L23.865 6L14.075 6L14.075 9.11285L18.85 9.11285L14.075 14.9624Z" fill="white"/>
</g>
</g>
<defs>
<clipPath id="clip0_52_115">
<rect width="24" height="24" fill="white"/>
</clipPath>
</defs>
</svg>
